<?xml version="1.0" standalone="no"?>
<!DOCTYPE svg PUBLIC "-//W3C//DTD SVG 20010904//EN"
 "http://www.w3.org/TR/2001/REC-SVG-20010904/DTD/svg10.dtd">
<svg version="1.0" xmlns="http://www.w3.org/2000/svg"
 width="300.000000pt" height="497.000000pt" viewBox="0 0 300.000000 497.000000"
 preserveAspectRatio="xMidYMid meet">
<metadata>
Created by potrace 1.10, written by Peter Selinger 2001-2011
</metadata>
<g transform="translate(0.000000,497.000000) scale(0.100000,-0.100000)"
fill="#d25b4a" stroke="none">
<path d="M1365 4843 c-11 -2 -30 -9 -42 -15 -12 -6 -32 -8 -44 -5 -12 3 -31 1
-42 -4 -13 -8 -22 -8 -30 0 -18 18 -37 13 -37 -9 0 -14 -7 -20 -24 -20 -13 0
-27 -7 -30 -16 -3 -8 -10 -12 -16 -9 -6 4 -7 12 -3 18 4 7 -4 4 -17 -6 -14 -9
-31 -19 -37 -22 -39 -15 -49 -18 -55 -17 -5 1 -8 -6 -8 -17 0 -18 2 -18 64 -1
35 10 73 23 84 29 11 6 30 11 41 11 12 0 29 4 39 9 34 18 101 34 116 28 9 -4
42 -1 73 5 32 6 64 11 71 11 15 0 15 10 0 25 -12 12 -62 14 -103 5z"/>
<path d="M1657 4813 c-9 -9 -9 -23 1 -21 4 0 14 -1 22 -5 23 -8 125 -26 129
-22 2 2 1 12 -3 21 -4 12 -15 15 -36 12 -20 -3 -30 0 -30 9 0 14 -70 19 -83 6z"/>
<path d="M1840 4766 c0 -16 28 -42 36 -33 8 7 -14 47 -26 47 -6 0 -10 -6 -10
-14z"/>
<path d="M1475 4760 c-4 -6 -23 -10 -43 -10 -51 1 -96 -5 -112 -15 -8 -5 -31
-9 -52 -9 -21 0 -38 -4 -38 -8 0 -4 -9 -8 -19 -8 -11 0 -23 -5 -26 -10 -4 -6
-11 -8 -16 -5 -5 4 -9 1 -9 -5 0 -6 -4 -9 -9 -5 -5 3 -12 1 -15 -4 -6 -9 -64
-25 -83 -22 -7 1 -13 -3 -13 -10 0 -6 -8 -9 -20 -6 -11 3 -30 -3 -45 -15 -14
-10 -29 -17 -33 -14 -10 6 -52 -30 -52 -44 0 -6 -11 -10 -25 -10 -14 0 -25 -4
-25 -8 0 -4 -13 -13 -29 -19 -32 -12 -66 -56 -56 -73 7 -12 35 -14 35 -1 0 11
103 87 129 96 12 3 21 12 21 18 0 14 74 38 104 34 12 -1 25 7 33 23 10 19 13
21 13 7 0 -15 6 -17 38 -11 20 3 56 17 79 30 23 13 53 24 67 24 16 0 26 6 26
15 0 8 9 15 20 15 11 0 20 -5 20 -11 0 -7 10 -9 28 -5 15 4 65 11 111 16 75 9
90 8 142 -11 61 -22 89 -20 89 6 0 20 -41 36 -105 41 -82 7 -101 10 -113 18
-6 3 -13 2 -17 -4z"/>
<path d="M1890 4740 c0 -5 7 -10 15 -10 8 0 15 5 15 10 0 6 -7 10 -15 10 -8 0
-15 -4 -15 -10z"/>
<path d="M951 4723 c0 -7 -13 -13 -27 -13 -17 0 -24 -4 -21 -12 3 -9 -6 -14
-26 -15 -38 -3 -39 -4 -24 -36 15 -33 34 -35 39 -4 2 16 11 23 31 25 30 4 42
20 34 49 -3 10 -5 12 -6 6z"/>
<path d="M1726 4704 c-9 -23 -8 -24 13 -24 11 0 26 -6 33 -13 30 -29 64 -47
90 -47 16 0 28 -4 28 -10 0 -5 8 -10 18 -10 10 0 48 -31 85 -70 37 -38 73 -70
82 -70 8 0 15 -7 15 -15 0 -8 5 -15 10 -15 6 0 10 -6 10 -14 0 -7 18 -34 40
-59 22 -25 40 -50 40 -56 0 -5 6 -14 14 -18 8 -4 28 -27 45 -50 17 -24 39 -43
49 -43 22 0 42 -19 42 -39 -1 -14 -3 -13 -14 2 -16 20 -26 22 -26 4 0 -17 42
-57 59 -57 7 0 10 -7 6 -19 -3 -10 1 -24 10 -31 8 -7 15 -18 15 -24 0 -7 14
-22 30 -34 27 -21 30 -21 30 -5 0 10 -9 24 -21 31 -16 10 -19 19 -14 40 4 22
0 33 -21 52 -14 14 -34 43 -44 65 -10 22 -30 52 -44 67 -14 15 -26 34 -26 43
0 10 -9 19 -19 22 -11 3 -21 17 -25 35 -4 21 -10 29 -21 24 -9 -3 -15 0 -15
10 0 21 -43 71 -56 67 -6 -2 -17 9 -25 24 -25 50 -64 93 -82 93 -20 0 -47 22
-47 39 0 6 -6 11 -13 11 -8 0 -27 11 -43 25 -16 14 -37 25 -46 25 -10 0 -18 5
-18 11 0 6 -5 9 -12 7 -6 -2 -21 5 -31 15 -18 18 -21 19 -32 4 -16 -22 -22
-21 -28 3 -6 24 -32 27 -41 4z"/>
<path d="M1960 4691 c0 -5 11 -12 25 -15 14 -4 25 -13 25 -21 0 -8 5 -15 10
-15 18 0 10 29 -12 44 -25 18 -48 21 -48 7z"/>
<path d="M1506 4654 c-4 -12 -10 -13 -19 -6 -14 12 -117 13 -132 2 -9 -6 -41
-14 -110 -26 -50 -9 -130 -44 -133 -59 -3 -11 -10 -14 -23 -10 -14 5 -22 -1
-31 -19 -6 -14 -15 -26 -19 -26 -13 0 -59 -46 -59 -59 0 -16 61 19 100 57 17
18 38 32 46 32 8 0 22 4 32 9 30 15 155 44 210 49 29 2 52 9 52 15 0 8 3 8 11
0 8 -8 20 -8 36 -2 14 5 28 7 33 4 4 -3 21 0 38 6 25 9 38 6 81 -16 29 -14 55
-24 60 -21 4 3 20 -2 35 -10 39 -19 56 -18 56 6 0 11 1 23 2 28 4 16 -34 13
-47 -5 -13 -17 -14 -16 -15 9 0 25 -3 27 -57 33 -32 3 -68 8 -80 11 -14 3 -23
0 -23 -8 0 -8 -5 -6 -11 5 -13 21 -25 22 -33 1z"/>
<path d="M761 4603 c-17 -21 -31 -47 -31 -58 1 -19 1 -19 14 -2 7 9 18 17 25
17 6 0 11 6 11 13 0 7 10 17 23 22 26 12 29 38 6 43 -10 2 -30 -13 -48 -35z"/>
<path d="M2070 4621 c0 -13 29 -35 37 -28 7 8 -15 37 -28 37 -5 0 -9 -4 -9 -9z"/>
<path d="M1797 4570 c-18 -18 -18 -19 20 -42 21 -13 51 -30 67 -38 27 -14 110
-94 170 -165 l25 -30 1 46 c0 38 -5 50 -33 77 -18 18 -42 32 -52 32 -15 0 -17
2 -6 9 16 10 2 25 -75 76 -53 34 -66 36 -58 7 2 -10 -3 -2 -11 16 -17 37 -23
38 -48 12z"/>
<path d="M970 4550 c-28 -24 -32 -31 -21 -39 27 -18 105 41 84 63 -12 12 -29
6 -63 -24z"/>
<path d="M1376 4564 c-49 -8 -95 -19 -103 -26 -8 -6 -33 -12 -56 -14 -54 -3
-138 -41 -144 -64 -3 -10 -10 -17 -17 -14 -7 3 -21 -4 -31 -16 -20 -22 -57
-28 -53 -8 2 6 -6 14 -16 16 -14 3 -17 0 -13 -11 7 -19 -15 -39 -35 -32 -18 7
-70 -57 -63 -78 5 -10 -1 -13 -23 -9 -24 3 -32 -2 -58 -40 -16 -23 -34 -56
-41 -71 -7 -15 -26 -39 -43 -53 -16 -14 -30 -32 -30 -39 0 -7 -6 -18 -14 -24
-8 -7 -17 -23 -21 -38 -3 -14 -12 -31 -19 -39 -8 -7 -17 -30 -21 -50 -3 -20
-13 -43 -21 -51 -17 -18 -18 -43 -1 -43 8 -1 7 -5 -4 -13 -19 -15 -39 -50 -39
-70 0 -8 12 -17 26 -20 30 -5 34 4 54 106 8 37 21 75 29 85 9 9 22 35 29 57
23 68 36 95 47 95 5 0 39 39 74 88 59 79 111 140 111 128 0 -2 17 13 38 35 31
31 46 39 74 39 19 0 46 8 59 18 30 22 79 45 101 48 9 0 37 13 63 28 35 19 62
26 100 26 40 0 54 4 59 17 5 12 9 14 18 5 15 -15 78 -16 78 -2 0 6 5 10 10 10
6 0 10 -7 10 -15 0 -16 15 -20 24 -7 7 12 50 7 116 -13 30 -9 66 -19 80 -22
25 -6 33 -11 122 -71 25 -18 56 -32 67 -32 12 0 21 -6 21 -12 0 -7 21 -33 45
-57 25 -25 45 -49 45 -53 0 -4 6 -8 14 -8 8 0 18 -10 21 -22 4 -13 15 -32 25
-43 9 -11 30 -42 46 -68 16 -27 37 -61 46 -75 9 -15 24 -49 34 -77 9 -27 20
-54 24 -60 4 -5 11 -21 15 -35 4 -14 20 -44 36 -67 17 -26 30 -61 33 -94 3
-28 15 -67 26 -85 11 -18 20 -36 19 -41 -2 -9 16 -59 31 -85 6 -10 10 -36 10
-58 0 -22 5 -40 10 -40 6 0 10 -8 10 -17 0 -34 21 -94 31 -88 5 4 9 1 9 -5 0
-6 -7 -13 -15 -16 -10 -4 -12 -11 -6 -22 5 -10 14 -58 21 -109 12 -85 14 -91
31 -82 20 10 26 59 8 59 -7 0 -9 11 -5 30 3 17 1 42 -5 58 -6 15 -11 42 -10
61 0 19 -6 48 -13 65 -8 17 -17 47 -19 66 -11 71 -38 186 -51 210 -7 14 -16
49 -19 78 -3 29 -13 59 -21 68 -8 8 -13 21 -9 29 3 9 -7 31 -21 49 -31 42 -32
46 -6 39 28 -8 26 18 -7 70 -20 30 -28 37 -31 25 -2 -9 2 -26 8 -37 9 -17 8
-21 -5 -21 -8 0 -15 6 -15 14 0 7 -7 19 -15 26 -10 8 -12 17 -5 29 5 10 5 23
-1 32 -5 7 -9 24 -9 36 0 18 -5 21 -27 20 -19 -1 -28 3 -28 13 -1 8 -6 25 -13
37 -7 12 -12 29 -12 37 0 20 -56 83 -79 91 -10 3 -21 18 -24 33 -3 16 -17 34
-31 42 -14 7 -26 18 -26 25 0 19 -77 85 -99 85 -11 0 -25 9 -31 20 -12 22 -36
27 -44 8 -2 -7 -4 -2 -3 11 2 31 -48 55 -63 31 -8 -13 -10 -12 -10 2 0 18 -28
38 -54 38 -10 0 -13 -6 -9 -16 5 -14 3 -14 -16 -3 -11 8 -21 19 -21 25 0 11
-38 19 -132 28 -24 2 -83 -2 -132 -10z"/>
<path d="M2150 4545 c0 -15 38 -55 53 -55 13 0 -4 43 -22 57 -21 17 -31 16
-31 -2z"/>
<path d="M649 4497 c-9 -7 -19 -24 -23 -39 -4 -19 -13 -28 -26 -28 -15 0 -20
-7 -20 -25 0 -15 -6 -25 -14 -25 -22 0 -27 -27 -5 -33 12 -3 19 0 19 8 0 8 9
17 20 20 23 7 50 53 50 85 0 11 7 20 15 20 8 0 15 7 15 15 0 18 -9 19 -31 2z"/>
<path d="M877 4485 c-45 -23 -88 -75 -82 -96 8 -25 36 -24 42 1 3 11 11 20 18
20 12 0 85 73 85 85 0 10 -36 4 -63 -10z"/>
<path d="M1332 4482 c-21 -7 -13 -39 11 -46 36 -9 107 -7 107 4 0 6 5 10 11
10 5 0 7 -5 3 -12 -5 -8 5 -9 37 -5 24 3 63 2 87 -4 40 -9 82 3 82 23 0 16
-299 43 -338 30z"/>
<path d="M1245 4465 c-32 -15 -123 -55 -167 -73 -35 -14 -37 -42 -4 -42 14 0
31 6 38 13 7 8 19 12 25 10 23 -8 54 17 48 38 -4 10 -2 19 3 19 6 0 12 -5 14
-10 2 -7 21 -6 54 2 43 10 52 16 52 35 0 27 -18 29 -63 8z"/>
<path d="M2238 4472 c-22 -4 -22 -9 -3 -29 16 -15 45 -12 45 5 0 15 -24 29
-42 24z"/>
<path d="M666 4399 c-36 -36 -66 -70 -66 -76 0 -6 -18 -23 -40 -38 -22 -15
-40 -33 -40 -40 0 -7 -7 -19 -17 -26 -17 -15 -44 -70 -50 -103 -2 -11 -10 -27
-18 -36 -8 -9 -15 -26 -15 -37 0 -12 -13 -34 -30 -50 -36 -33 -37 -39 -9 -46
16 -4 24 1 35 28 9 22 19 32 28 29 9 -3 15 5 20 27 8 43 8 51 -4 44 -5 -3 -10
-2 -10 2 0 5 14 14 30 20 26 10 30 15 25 36 -5 17 -2 26 9 30 9 4 16 13 16 21
0 7 9 16 20 19 15 4 20 14 20 36 0 21 6 34 17 38 26 10 53 36 53 50 0 7 6 13
14 13 8 0 33 18 55 39 34 33 40 43 32 63 -8 22 -11 20 -75 -43z"/>
<path d="M1676 4424 c-9 -22 1 -34 28 -34 13 0 29 -7 36 -15 7 -8 18 -15 25
-15 7 0 35 -18 63 -40 35 -28 55 -38 68 -33 13 5 16 3 12 -9 -4 -10 11 -32 42
-62 27 -26 52 -56 55 -67 4 -10 11 -19 16 -19 5 0 9 -6 9 -13 0 -7 10 -23 23
-37 13 -14 22 -30 20 -36 -4 -12 52 -141 71 -164 16 -19 46 -100 46 -123 0 -9
5 -17 10 -17 6 0 10 -10 10 -22 1 -13 9 -37 18 -54 9 -17 27 -49 39 -70 13
-25 19 -49 16 -66 -3 -15 2 -39 10 -55 8 -15 20 -55 27 -88 6 -33 16 -76 22
-95 15 -46 19 -178 6 -186 -16 -10 -20 2 -24 68 -3 79 -13 147 -23 173 -13 32
-31 113 -31 140 0 13 -4 27 -10 30 -5 3 -10 17 -10 29 0 26 -35 112 -50 121
-4 3 -11 20 -15 38 -9 45 -36 119 -50 137 -18 24 -82 162 -89 195 -12 50 -68
125 -98 132 -16 3 -25 10 -21 16 7 12 -83 97 -104 97 -27 0 -12 -26 51 -86 72
-69 101 -108 91 -124 -10 -16 -25 -12 -25 9 0 23 -25 45 -41 35 -8 -5 -11 -2
-7 7 3 8 1 22 -6 30 -14 18 -79 59 -95 59 -7 0 -28 11 -48 25 -26 17 -44 23
-62 18 -20 -5 -23 -3 -18 10 8 22 6 23 -112 47 -66 14 -113 19 -134 14 -18 -4
-42 -6 -55 -5 -12 1 -38 -7 -57 -19 -21 -13 -35 -17 -35 -10 0 18 -36 2 -120
-51 -41 -27 -80 -52 -86 -56 -5 -4 -19 -13 -30 -19 -12 -7 -18 -20 -16 -35 4
-20 2 -21 -12 -10 -15 12 -18 10 -29 -18 -6 -17 -18 -31 -25 -31 -15 0 -51
-39 -52 -56 0 -6 -9 -19 -19 -28 -25 -22 -34 -56 -15 -56 8 0 14 -5 14 -11 0
-6 -9 -8 -20 -4 -15 5 -18 3 -14 -9 3 -8 -4 -24 -16 -36 -22 -22 -22 -31 -5
-87 5 -15 3 -23 -4 -23 -6 0 -11 7 -11 16 0 32 -27 -5 -28 -37 0 -18 -6 -35
-11 -39 -6 -3 -12 -24 -14 -46 -1 -21 -6 -45 -11 -53 -6 -9 -4 -18 7 -26 22
-16 22 -27 0 -23 -24 4 -49 -68 -31 -89 7 -9 8 -17 2 -21 -31 -23 -56 -159
-35 -187 5 -5 4 -48 -1 -95 -6 -57 -6 -98 2 -127 5 -24 8 -54 4 -67 -3 -13 0
-35 7 -48 7 -12 13 -27 14 -33 0 -5 6 -20 13 -32 9 -16 9 -23 1 -23 -12 0 -3
-96 10 -115 4 -5 13 -29 21 -52 9 -29 19 -43 31 -43 28 0 28 22 -1 65 -15 22
-25 46 -23 53 3 7 2 20 -3 30 -10 25 -4 54 14 68 14 11 14 14 -1 38 -10 15
-15 31 -11 37 4 7 -1 9 -15 4 -15 -5 -21 -2 -21 10 0 9 -4 13 -10 10 -5 -3
-10 -1 -10 4 0 6 7 11 15 11 8 0 15 -4 15 -10 0 -5 9 -10 20 -10 11 0 20 7 20
15 0 8 -6 15 -14 15 -20 0 -28 27 -10 34 20 8 12 91 -12 117 -16 18 -16 19 1
19 15 0 17 6 11 48 -8 65 49 492 66 492 4 0 8 11 8 25 0 13 4 34 9 47 29 77
33 100 20 110 -11 8 -10 8 4 4 12 -4 20 0 23 12 3 9 15 34 25 54 12 23 18 47
14 65 -4 20 -3 23 3 9 8 -19 9 -18 25 5 9 13 17 29 17 36 0 7 7 13 15 13 8 0
15 6 15 13 0 6 16 25 35 41 19 16 35 35 35 43 0 7 6 13 14 13 8 0 23 11 33 24
10 13 35 29 56 37 20 7 37 19 37 26 0 15 12 17 26 4 10 -11 116 20 140 40 11
9 14 8 14 -3 0 -19 71 -11 86 10 10 14 13 13 23 -7 7 -13 19 -20 26 -17 8 3
32 -4 54 -15 22 -10 50 -19 63 -19 13 0 31 -7 41 -14 10 -8 26 -12 37 -9 12 3
20 -2 24 -14 3 -10 24 -27 47 -37 22 -11 45 -28 50 -38 5 -10 14 -18 19 -18 5
0 40 -31 78 -69 52 -53 72 -67 81 -58 8 8 11 2 11 -26 0 -24 5 -40 15 -43 8
-4 15 -12 15 -19 0 -7 14 -42 30 -78 17 -37 30 -73 30 -82 0 -8 11 -25 25 -37
20 -18 22 -23 10 -32 -13 -11 -13 -19 8 -172 2 -11 7 -25 11 -32 4 -7 5 -21 1
-31 -3 -10 1 -52 9 -92 16 -82 30 -174 31 -203 0 -10 11 -23 23 -27 24 -9 24
-8 18 43 -3 29 -6 62 -7 73 -1 11 -10 63 -21 115 -10 52 -21 109 -23 125 -6
51 -11 79 -24 118 -7 21 -10 41 -7 44 15 15 35 -38 46 -122 7 -49 17 -94 21
-100 5 -5 9 -19 9 -32 0 -13 7 -26 16 -30 15 -6 15 -7 -1 -19 -9 -7 -14 -17
-11 -23 7 -10 25 -94 32 -151 3 -19 7 -89 11 -155 3 -66 9 -128 14 -137 6 -10
6 -18 2 -18 -14 0 -6 -219 8 -236 11 -13 10 -17 -3 -25 -12 -7 -16 -25 -16
-81 -1 -201 -20 -455 -46 -588 -31 -165 -38 -195 -48 -207 -6 -7 -8 -20 -4
-28 3 -8 1 -15 -4 -15 -6 0 -10 -7 -10 -15 0 -8 4 -15 9 -15 15 0 29 23 52 85
12 33 25 62 28 65 11 9 32 104 37 170 3 35 10 72 15 82 6 11 8 26 5 35 -3 8
-3 19 0 25 4 5 8 74 10 151 2 78 7 192 10 252 9 139 8 233 -1 365 -12 183 -11
223 4 228 10 3 12 -3 6 -27 -6 -29 -5 -31 22 -31 27 -1 27 -1 9 -15 -16 -12
-19 -25 -17 -77 5 -102 5 -106 18 -119 8 -8 9 -18 3 -30 -12 -21 -6 -77 9 -92
16 -16 14 -37 -3 -31 -17 6 -31 -12 -16 -21 5 -3 10 -18 10 -33 0 -43 25 -8
29 41 2 17 21 -5 21 -24 0 -25 16 -25 23 1 3 11 2 20 -2 20 -4 0 -8 21 -9 48
l0 47 24 -28 c16 -19 23 -36 19 -48 -6 -18 19 -75 40 -92 6 -6 6 -10 -2 -14
-18 -7 -16 -78 3 -170 8 -42 13 -91 10 -108 -8 -40 3 -95 18 -95 22 0 36 58
22 93 -7 19 -12 74 -12 133 1 77 -2 100 -11 97 -10 -4 -12 10 -7 59 4 45 0 78
-11 112 -9 26 -14 54 -11 63 3 8 -1 27 -9 42 -8 17 -10 32 -5 37 12 12 1 54
-14 54 -6 0 -4 5 4 10 13 9 11 13 -9 29 -16 12 -20 20 -12 25 7 5 10 23 7 44
-3 20 -5 40 -5 45 -1 4 -8 7 -16 7 -10 0 -15 -11 -15 -35 0 -19 -6 -44 -12
-55 -10 -16 -9 -25 6 -50 11 -20 18 -50 18 -82 -1 -52 -14 -80 -27 -58 -8 13
-18 112 -18 183 0 39 -3 47 -19 47 -17 0 -17 2 -3 24 13 19 14 32 6 63 -5 21
-13 71 -17 111 -5 56 -10 72 -23 73 -10 0 -11 2 -3 6 15 6 16 50 1 55 -6 2 -7
12 -1 28 6 17 5 35 -6 60 -8 19 -18 51 -23 70 -8 37 -31 102 -39 110 -7 7 -27
68 -35 108 -4 17 -11 32 -16 32 -5 0 -9 11 -9 25 0 13 -13 54 -30 90 -16 36
-30 71 -30 78 0 7 -4 17 -9 23 -5 5 -28 45 -51 89 -24 44 -47 83 -52 86 -5 3
-16 19 -26 35 -51 87 -57 95 -75 90 -11 -3 -21 2 -24 12 -9 25 -55 72 -70 72
-7 0 -12 5 -10 12 1 6 -6 14 -15 16 -12 2 -18 -3 -18 -13 0 -9 -5 -13 -11 -10
-6 4 -8 14 -4 22 10 28 -81 76 -97 50 -5 -8 -8 -4 -8 11 0 26 -34 31 -44 6z
m324 -369 c7 -9 10 -18 7 -22 -8 -7 -37 15 -37 28 0 14 16 11 30 -6z"/>
<path d="M502 4398 c-6 -6 -12 -19 -12 -27 0 -13 2 -13 16 1 9 9 15 21 13 27
-3 9 -8 8 -17 -1z"/>
<path d="M2282 4398 c6 -18 28 -21 28 -4 0 9 -7 16 -16 16 -9 0 -14 -5 -12
-12z"/>
<path d="M1278 4383 c-6 -8 -17 -12 -25 -9 -16 6 -63 -13 -63 -26 0 -5 -6 -8
-12 -7 -17 3 -85 -28 -93 -41 -4 -6 -10 -8 -14 -5 -12 7 -42 -30 -39 -46 2
-10 -5 -13 -24 -11 -16 1 -32 -4 -40 -15 -7 -10 -25 -26 -40 -36 -16 -10 -28
-23 -28 -29 0 -7 -12 -22 -27 -34 -26 -21 -27 -24 -12 -39 14 -14 20 -15 38
-3 11 7 21 16 21 21 0 8 81 89 152 150 23 21 54 40 68 43 14 3 43 12 65 20 22
7 62 17 88 20 27 4 51 13 54 21 3 8 9 10 17 4 15 -11 158 -12 150 0 -3 5 0 9
6 9 6 0 13 -7 16 -15 7 -18 50 -20 57 -2 3 9 8 8 18 -4 19 -22 47 -31 55 -17
5 7 10 3 15 -11 11 -28 99 -68 111 -49 4 7 8 18 8 24 0 14 -73 54 -98 54 -10
0 -23 5 -29 11 -20 20 -150 41 -191 30 -25 -8 -38 -8 -40 0 -3 6 -9 6 -18 -2
-8 -6 -14 -8 -14 -3 0 16 -119 13 -132 -3z"/>
<path d="M753 4373 c-7 -3 -13 -15 -13 -29 0 -15 -5 -22 -13 -18 -14 5 -77
-46 -77 -64 0 -6 9 -14 21 -17 16 -5 31 4 70 46 27 29 49 56 49 60 0 12 -25
26 -37 22z"/>
<path d="M2320 4335 c0 -8 5 -15 10 -15 6 0 10 -7 10 -15 0 -8 7 -15 15 -15 8
0 15 4 15 9 0 5 -7 11 -15 15 -8 3 -15 12 -15 21 0 8 -4 15 -10 15 -5 0 -10
-7 -10 -15z"/>
<path d="M530 4325 c0 -8 5 -15 10 -15 6 0 10 7 10 15 0 8 -4 15 -10 15 -5 0
-10 -7 -10 -15z"/>
<path d="M970 4324 c0 -11 -6 -14 -20 -9 -16 5 -23 0 -31 -24 -6 -17 -17 -31
-23 -31 -7 0 -24 -9 -37 -21 -20 -17 -21 -22 -9 -31 13 -8 12 -9 -1 -5 -10 3
-29 -8 -50 -29 -18 -19 -28 -34 -21 -34 7 0 12 -7 12 -16 0 -14 -3 -14 -15 -4
-8 7 -15 9 -15 4 0 -5 -17 -32 -39 -60 -21 -28 -41 -68 -45 -90 -4 -21 -17
-49 -29 -61 -11 -13 -18 -25 -15 -29 3 -3 -3 -30 -13 -59 -21 -62 -24 -96 -8
-112 8 -8 8 -13 0 -17 -6 -4 -11 -4 -11 1 -1 19 -40 -73 -40 -94 0 -14 -5 -34
-12 -46 -7 -12 -13 -42 -14 -67 -7 -130 -13 -212 -17 -216 -3 -3 -1 -20 3 -39
5 -20 4 -33 -1 -29 -5 3 -9 -11 -9 -30 0 -19 5 -38 10 -41 7 -5 8 -11 1 -18
-11 -14 -16 -172 -6 -204 7 -20 33 -39 42 -29 9 8 9 526 1 526 -5 0 -2 10 6
22 9 12 16 34 16 48 0 14 4 30 9 35 4 6 13 29 19 53 9 36 8 42 -5 40 -9 -2
-18 3 -20 10 -3 6 2 12 11 12 9 0 15 3 14 8 -2 11 13 45 29 64 13 14 12 19 -7
36 -14 13 -18 22 -11 27 6 3 11 1 11 -5 0 -8 6 -8 20 0 24 13 26 38 5 46 -23
9 -18 26 5 19 17 -5 21 -1 26 24 4 17 13 36 20 42 8 6 14 21 14 33 0 11 9 32
20 46 11 14 20 32 20 41 0 8 11 30 25 49 14 19 25 38 25 42 0 5 14 22 30 38
17 16 30 34 30 39 0 6 9 15 20 21 11 6 20 17 20 25 0 8 8 15 18 15 10 0 40 23
67 50 l49 50 -37 0 c-27 0 -37 -4 -37 -16z"/>
<path d="M2086 4308 c-4 -18 3 -32 34 -61 22 -21 56 -65 75 -99 20 -33 42 -67
50 -75 8 -8 15 -21 15 -29 0 -8 7 -17 15 -20 8 -3 17 -14 20 -24 3 -10 17 -30
30 -46 14 -16 25 -38 25 -50 0 -11 3 -24 7 -27 3 -4 7 -19 9 -34 4 -49 22
-131 32 -150 5 -10 13 -43 17 -73 4 -30 14 -67 21 -82 8 -15 14 -39 14 -53 0
-14 4 -24 8 -21 4 2 13 -25 20 -62 7 -37 20 -74 28 -84 10 -10 13 -24 9 -39
-9 -26 13 -140 29 -154 14 -12 15 -67 1 -77 -6 -5 -5 -11 3 -16 8 -6 11 -18 7
-34 -4 -14 1 -49 9 -79 9 -29 16 -74 16 -100 0 -26 3 -54 6 -63 9 -23 34 -20
34 4 0 11 -4 20 -10 20 -5 0 -10 5 -10 10 0 6 10 10 23 10 13 0 17 3 11 8 -15
9 -37 89 -30 107 7 19 -5 27 -22 13 -12 -10 -14 -9 -10 7 2 12 11 19 22 18 15
-1 17 4 11 25 -3 15 -6 39 -5 55 0 15 -4 27 -8 27 -5 0 -7 23 -4 50 4 40 2 50
-11 50 -17 0 -29 48 -17 69 5 9 1 22 -11 34 -14 15 -15 23 -7 37 9 13 3 41
-25 124 -21 59 -37 116 -37 127 0 10 -4 27 -9 37 -16 31 -31 88 -31 115 0 17
-5 27 -15 27 -20 0 -19 6 5 30 14 14 18 25 11 38 -5 9 -19 41 -32 70 -12 28
-26 52 -31 52 -4 0 -8 16 -8 35 0 19 -5 35 -10 35 -6 0 -20 20 -32 45 -14 29
-29 45 -40 45 -10 0 -18 7 -18 18 0 9 -16 43 -37 75 -29 46 -40 56 -56 51 -14
-4 -17 -3 -12 6 10 16 -27 91 -42 85 -7 -2 -13 0 -13 5 0 19 -18 10 -24 -12z"/>
<path d="M450 4313 c0 -5 4 -14 9 -22 11 -17 32 -5 24 14 -5 15 -33 21 -33 8z"/>
<path d="M417 4225 c-4 -8 -2 -17 4 -21 12 -7 41 15 33 27 -8 14 -31 11 -37
-6z"/>
<path d="M624 4217 c-37 -40 -65 -87 -59 -97 3 -5 -1 -10 -9 -10 -9 0 -16 -5
-16 -11 0 -6 -10 -24 -21 -41 -12 -17 -23 -37 -24 -47 -1 -9 -7 -29 -13 -44
-18 -41 -15 -49 15 -45 22 2 29 10 37 38 5 19 16 39 23 43 7 4 13 23 13 41 0
19 6 39 14 45 8 7 24 31 36 54 12 23 30 51 41 63 19 20 17 34 -5 34 -6 0 -20
-10 -32 -23z"/>
<path d="M1295 4216 c-84 -22 -135 -52 -135 -80 0 -22 33 -20 55 4 10 11 22
17 26 14 5 -3 24 6 42 20 24 19 46 26 76 26 26 0 40 4 36 10 -10 17 7 11 20
-6 10 -14 15 -14 32 -3 18 10 28 10 62 -1 45 -15 69 -5 58 24 -10 24 -170 20
-272 -8z"/>
<path d="M1577 4206 c-4 -10 4 -19 24 -28 16 -7 29 -16 29 -20 0 -13 21 -9 37
7 12 12 13 19 3 30 -14 16 -35 21 -25 6 3 -5 1 -12 -5 -16 -5 -3 -10 1 -10 9
0 9 -4 16 -9 16 -5 0 -16 3 -24 6 -8 3 -17 -2 -20 -10z"/>
<path d="M1686 4164 c-10 -25 -7 -34 9 -34 21 0 57 -21 74 -44 7 -10 29 -24
48 -32 45 -19 108 -77 123 -114 7 -17 16 -30 20 -30 11 0 51 -70 57 -99 2 -13
13 -41 23 -62 11 -21 20 -45 20 -54 0 -8 9 -15 20 -15 11 0 20 -4 20 -10 0 -5
-4 -10 -10 -10 -11 0 -14 -83 -3 -94 4 -3 8 -44 10 -90 l4 -83 -25 4 c-24 5
-26 3 -26 -35 0 -23 4 -43 9 -47 15 -9 40 23 34 45 -3 11 0 20 6 20 6 0 11 -6
11 -12 0 -7 11 -34 24 -60 20 -39 21 -48 9 -52 -10 -4 -13 -15 -9 -33 3 -16 8
-59 11 -98 3 -38 8 -83 12 -100 9 -45 10 -106 3 -110 -4 -2 -8 -34 -8 -70 -1
-36 -6 -82 -12 -103 -11 -43 -10 -132 2 -132 4 0 8 -7 8 -15 0 -8 -5 -15 -11
-15 -6 0 -10 -29 -9 -77 1 -80 -2 -107 -13 -133 -3 -8 -8 -35 -10 -60 -2 -25
-6 -52 -9 -60 -2 -8 -3 -12 -1 -7 6 9 23 -1 23 -14 0 -5 -6 -9 -13 -9 -13 0
-38 -136 -42 -229 -1 -26 -7 -59 -13 -76 -6 -16 -13 -54 -17 -83 -3 -30 -11
-62 -17 -72 -13 -21 -3 -53 14 -48 7 3 16 22 20 44 4 21 13 62 19 89 6 28 11
66 12 85 0 19 6 41 14 48 11 12 18 49 14 75 -1 5 8 47 19 93 22 96 25 124 10
124 -5 0 -10 5 -10 10 0 6 9 10 20 10 17 0 20 7 21 43 2 63 5 89 13 125 5 19
4 32 -2 32 -5 0 -13 7 -16 16 -5 12 -2 15 12 12 17 -5 18 7 19 181 0 107 -3
194 -9 205 -6 12 -7 21 0 25 16 11 12 148 -8 275 -11 67 -22 148 -24 181 -2
33 -9 86 -15 118 -5 32 -8 64 -4 73 3 8 0 20 -5 27 -6 7 -11 22 -11 32 2 58
-54 200 -83 213 -5 2 -8 12 -8 23 0 34 -34 82 -101 147 -46 43 -71 61 -83 56
-11 -4 -16 -1 -16 12 0 13 -22 32 -63 57 -72 42 -73 42 -81 21z m475 -1467
c-16 -16 -26 0 -10 19 9 11 15 12 17 4 2 -6 -1 -17 -7 -23z"/>
<path d="M1418 4163 c-51 -4 -67 -23 -20 -23 15 0 44 -3 65 -6 29 -5 37 -3 37
9 0 12 -27 32 -33 25 -1 -1 -23 -3 -49 -5z"/>
<path d="M377 4153 c-11 -10 -8 -20 8 -27 10 -4 15 1 15 14 0 20 -11 26 -23
13z"/>
<path d="M1321 4151 c-16 -10 -6 -31 15 -31 8 0 14 9 14 20 0 22 -7 25 -29 11z"/>
<path d="M1520 4142 c0 -10 13 -23 33 -31 17 -7 46 -19 64 -27 17 -8 36 -14
42 -14 6 0 11 -5 11 -10 0 -6 11 -15 25 -20 13 -5 36 -27 51 -50 30 -45 39
-48 53 -22 12 23 -2 47 -23 39 -18 -7 -21 4 -5 20 7 7 2 17 -18 33 -24 19 -28
20 -31 6 -5 -23 -22 -19 -22 5 0 15 -5 19 -15 15 -9 -3 -15 0 -15 9 0 18 -37
38 -56 31 -8 -3 -23 3 -34 14 -25 25 -60 26 -60 2z"/>
<path d="M1102 4118 c-6 -8 -6 -22 -1 -37 9 -22 11 -23 27 -8 24 22 26 57 3
57 -10 0 -23 -6 -29 -12z"/>
<path d="M1263 4123 c-7 -2 -13 -11 -13 -20 0 -9 -6 -12 -17 -9 -10 3 -25 1
-33 -4 -10 -6 -11 -10 -2 -10 6 0 12 -5 12 -11 0 -6 -9 -8 -20 -4 -16 5 -20 2
-20 -15 0 -15 -5 -20 -14 -17 -16 7 -85 -64 -109 -113 -25 -50 -42 -77 -59
-97 -20 -24 -59 -132 -52 -144 10 -16 20 -9 47 32 15 22 41 60 59 85 27 38 30
48 20 65 -10 16 -10 19 3 19 21 0 31 30 14 41 -10 6 -7 9 12 9 19 0 35 11 55
38 35 46 91 102 127 125 40 26 33 48 -10 30z m-226 -309 c-9 -9 -28 6 -21 18
4 6 10 6 17 -1 6 -6 8 -13 4 -17z"/>
<path d="M1398 4089 c-32 -18 -19 -24 58 -26 55 -2 74 1 71 10 -6 19 -67 33
-77 18 -5 -9 -10 -10 -14 -2 -9 13 -16 13 -38 0z"/>
<path d="M1041 4053 c-11 -16 -29 -37 -40 -48 -11 -11 -31 -43 -46 -72 -14
-29 -30 -55 -35 -58 -6 -3 -10 -16 -10 -29 0 -12 -5 -27 -11 -33 -6 -6 -14
-26 -19 -46 -6 -30 -5 -36 11 -40 27 -7 41 19 42 76 0 20 4 26 14 23 7 -3 17
2 20 11 4 9 1 19 -5 21 -7 2 -12 12 -12 23 0 16 3 18 19 9 16 -8 23 -6 35 12
9 12 16 27 16 33 0 7 11 22 24 34 15 14 22 30 19 42 -4 15 -2 18 11 13 21 -8
32 21 16 41 -17 21 -26 19 -49 -12z m-41 -112 c0 -12 -20 -25 -27 -18 -7 7 6
27 18 27 5 0 9 -4 9 -9z"/>
<path d="M1293 4064 c-18 -8 -46 -33 -63 -57 -16 -23 -33 -45 -37 -49 -96 -88
-103 -96 -103 -121 0 -15 4 -27 10 -27 12 0 100 89 100 101 0 5 11 14 25 19
14 5 25 14 25 20 0 5 5 10 11 10 6 0 9 -7 5 -15 -3 -8 -2 -15 2 -15 15 0 30
16 34 35 2 17 -2 19 -24 17 -38 -4 -35 16 5 34 66 32 77 39 74 49 -5 15 -29
15 -64 -1z"/>
<path d="M1545 4060 c-16 -18 -15 -20 18 -34 38 -15 160 -129 170 -158 4 -10
11 -18 17 -18 5 0 10 -15 10 -33 0 -18 14 -74 30 -125 17 -51 30 -99 30 -107
0 -8 4 -15 9 -15 5 0 4 -15 -2 -35 -8 -26 -7 -45 3 -75 29 -89 12 -639 -25
-815 -10 -45 -11 -71 -5 -73 14 -5 12 -29 -2 -35 -8 -3 -14 -28 -16 -63 -2
-32 -8 -66 -13 -75 -5 -10 -9 -46 -9 -81 0 -35 -4 -68 -9 -74 -14 -15 -18
-103 -4 -108 12 -5 27 39 18 54 -4 6 -1 10 6 10 8 0 10 12 5 39 -3 23 -2 42 4
46 5 3 10 17 10 31 0 14 -4 22 -10 19 -19 -11 -10 17 10 33 15 13 22 38 30 97
14 107 26 176 34 197 5 9 1 27 -9 41 -15 23 -14 25 3 29 23 6 32 42 41 155 5
69 4 83 -9 87 -11 3 -11 4 3 5 20 1 25 57 5 64 -10 3 -10 7 -1 18 14 17 10
340 -5 434 -6 33 -13 80 -17 105 -4 25 -11 50 -15 55 -4 6 -11 25 -15 42 -3
18 -18 42 -32 53 -14 11 -21 20 -14 20 6 0 11 11 11 25 0 14 5 25 10 25 6 0
10 -13 10 -28 0 -16 6 -36 13 -45 10 -15 15 -16 31 -4 22 16 15 35 -34 87 -18
19 -43 55 -56 82 -26 51 -33 55 -52 36 -8 -8 -12 -9 -12 -1 0 6 5 13 10 15 21
7 -16 41 -44 41 -19 0 -26 4 -22 14 4 8 -5 18 -21 26 -21 9 -27 9 -31 -1 -2
-7 -8 -10 -12 -7 -5 3 -7 12 -4 19 8 22 -23 26 -41 6z"/>
<path d="M813 4048 c-11 -13 -28 -41 -38 -63 -9 -22 -21 -48 -26 -57 -5 -10
-13 -34 -18 -55 -5 -21 -21 -71 -36 -112 -20 -54 -26 -83 -21 -111 3 -22 2
-41 -4 -45 -5 -3 -10 2 -11 12 0 10 -7 0 -15 -22 -8 -22 -12 -46 -9 -53 5 -15
-10 -84 -26 -114 -14 -28 -11 -68 6 -68 22 0 18 -18 -5 -25 -23 -7 -25 -18
-10 -46 7 -13 7 -25 1 -38 -8 -14 -6 -23 10 -37 l20 -18 -20 -8 c-24 -9 -28
-43 -6 -52 19 -7 19 -30 0 -46 -20 -17 -19 -40 3 -40 16 -1 16 -2 -1 -14 -15
-12 -16 -18 -7 -35 6 -12 10 -36 9 -53 -1 -49 10 -129 20 -142 5 -6 12 -28 16
-49 4 -21 14 -41 21 -44 8 -3 14 -17 14 -33 0 -40 20 -92 46 -121 13 -14 24
-35 24 -47 0 -13 7 -25 15 -28 8 -4 15 -12 15 -18 0 -18 47 -56 68 -56 10 0
27 -6 37 -14 17 -12 21 -12 32 3 11 14 12 14 13 -5 0 -17 8 -23 33 -27 17 -3
36 -1 42 4 5 5 16 9 25 9 17 0 35 18 67 70 12 19 36 44 52 55 37 24 37 26 9
44 -18 11 -22 11 -30 -3 -5 -9 -22 -16 -37 -16 -16 0 -34 -7 -41 -15 -11 -13
-46 -15 -122 -6 -5 1 -8 6 -8 13 0 15 -80 98 -95 98 -5 0 -16 -4 -24 -9 -11
-7 -9 -15 13 -43 14 -19 26 -42 26 -50 0 -9 15 -21 33 -28 17 -6 46 -18 62
-26 40 -19 105 -15 105 7 0 10 10 19 25 21 33 7 32 -11 -2 -44 -38 -36 -74
-43 -113 -23 -17 9 -38 14 -46 11 -9 -3 -31 1 -50 9 -27 11 -34 20 -34 41 0
19 -4 25 -15 21 -8 -4 -17 -2 -20 3 -3 4 0 10 6 12 7 2 -3 30 -26 73 -21 39
-44 81 -51 94 -7 13 -10 37 -7 51 3 15 0 31 -6 34 -6 4 -11 22 -11 41 0 34
-18 85 -30 85 -3 0 -5 95 -4 212 2 130 -1 217 -7 224 -6 8 -6 14 -1 18 5 3 13
32 17 63 4 32 12 64 18 72 7 8 11 40 11 72 -1 45 3 59 13 59 10 0 12 6 8 20
-4 12 -1 27 5 35 6 8 10 24 9 37 -2 13 9 41 24 63 14 22 29 59 33 82 3 24 13
48 20 54 8 6 14 18 14 26 0 7 7 25 16 38 9 14 13 25 8 25 -4 0 3 11 15 24 13
14 20 29 16 35 -11 18 -40 12 -62 -11z m-143 -503 c0 -8 -4 -15 -10 -15 -5 0
-10 7 -10 15 0 8 5 15 10 15 6 0 10 -7 10 -15z m-28 -147 c-9 -9 -12 -7 -12
12 0 19 3 21 12 12 9 -9 9 -15 0 -24z"/>
<path d="M1370 4018 c-44 -12 -58 -24 -43 -39 18 -18 103 10 103 33 0 20 -9
21 -60 6z"/>
<path d="M1450 4006 c0 -23 4 -26 38 -26 38 0 102 -31 102 -50 0 -13 -6 -13
-31 3 -17 10 -23 10 -26 0 -7 -18 -20 -16 -43 7 -21 21 -66 19 -106 -6 -12 -7
-30 -11 -40 -8 -44 12 -188 -95 -220 -163 -16 -33 -16 -88 0 -88 5 0 14 14 20
30 6 17 19 39 28 50 9 11 29 35 43 53 15 17 33 32 41 32 8 0 14 3 14 8 0 9 93
52 114 52 9 0 16 5 16 11 0 7 7 8 18 4 9 -4 35 -9 57 -10 22 -1 59 -5 83 -9
28 -5 42 -4 42 3 0 6 7 11 15 11 8 0 12 -6 9 -14 -6 -17 26 -53 44 -50 7 1 8
0 2 -3 -15 -7 -12 -24 8 -40 11 -9 13 -16 6 -19 -8 -3 -6 -16 6 -42 10 -20 21
-52 25 -69 3 -18 12 -36 18 -40 15 -10 19 -33 18 -97 0 -27 4 -55 9 -61 9 -11
6 -484 -4 -555 -4 -30 -5 -83 -6 -199 0 -14 -4 -27 -9 -30 -10 -7 -30 -161
-21 -161 12 0 -2 -69 -16 -81 -8 -6 -14 -25 -14 -42 0 -17 -7 -38 -15 -47 -9
-10 -18 -30 -21 -46 -2 -16 -11 -46 -20 -68 -8 -21 -12 -47 -9 -57 4 -10 2
-19 -4 -19 -12 0 -51 -102 -51 -135 0 -13 -3 -25 -7 -27 -13 -5 -54 -99 -48
-108 3 -5 -6 -30 -20 -56 -14 -26 -25 -55 -25 -66 0 -16 3 -16 19 -6 15 9 17
15 9 25 -8 10 -5 13 11 13 17 0 21 6 21 33 0 21 8 41 20 52 11 10 20 26 20 36
0 10 5 21 10 24 6 3 10 17 10 30 0 13 4 27 10 30 5 3 10 19 10 34 0 16 7 34
15 41 8 7 13 16 10 20 -3 5 1 28 9 52 8 24 17 63 21 88 9 58 27 110 38 110 5
0 6 -12 2 -27 -4 -16 -13 -66 -20 -113 -23 -141 -27 -165 -35 -175 -4 -5 -11
-25 -15 -44 -4 -19 -18 -53 -30 -75 -12 -23 -26 -57 -30 -76 -4 -19 -11 -41
-15 -50 -49 -94 -80 -190 -62 -190 16 1 29 18 55 79 20 48 24 67 16 77 -9 11
-7 15 7 21 25 9 34 23 34 56 0 26 17 66 32 77 7 6 19 47 38 135 6 28 16 65 21
83 6 18 8 46 4 62 -4 17 -2 30 3 30 15 0 22 41 11 62 -6 10 -6 18 -1 18 10 0
22 84 26 182 2 31 9 70 16 87 7 17 10 37 6 46 -3 8 -1 15 4 15 5 0 9 15 9 33
0 17 4 59 10 92 13 83 14 185 0 185 -5 0 -7 5 -4 10 4 6 10 8 15 5 13 -8 19
33 19 121 0 44 1 85 2 90 1 5 0 14 -1 19 -1 6 -1 25 0 43 1 23 -3 32 -14 32
-23 0 -20 31 4 37 13 4 19 12 16 22 -2 9 -7 42 -11 73 -4 38 -12 62 -23 68
-12 8 -14 13 -4 16 6 3 12 18 12 34 0 16 -6 30 -12 33 -10 3 -10 8 -2 16 19
20 -8 97 -32 93 -14 -2 -16 -1 -5 6 15 10 7 72 -10 72 -5 0 -9 13 -9 29 0 27
-48 114 -68 123 -4 2 -20 20 -35 40 -31 42 -95 82 -144 93 -31 6 -33 5 -33
-19z"/>
<path d="M1815 4020 c-4 -6 5 -25 19 -43 42 -51 116 -164 132 -202 8 -19 18
-35 22 -35 5 0 9 -15 9 -32 0 -18 3 -44 7 -58 4 -14 12 -47 18 -75 5 -27 13
-54 17 -58 5 -5 6 -28 3 -53 -4 -36 -2 -44 12 -44 26 0 28 18 13 131 -11 87
-15 104 -30 103 -20 -2 -22 9 -5 36 10 15 9 22 -5 38 -9 10 -17 28 -17 39 0
11 -9 32 -20 46 -11 14 -20 30 -20 36 0 24 -33 69 -98 137 -48 48 -48 49 -57
34z"/>
<path d="M1800 3938 c0 -11 25 -56 73 -133 6 -11 12 -21 13 -23 4 -10 34 13
34 27 0 19 -39 72 -40 54 0 -7 -5 -13 -11 -13 -8 0 -8 4 1 15 9 11 6 21 -15
50 -27 35 -55 46 -55 23z"/>
<path d="M405 3930 c-4 -6 -15 -8 -24 -5 -12 4 -21 -3 -29 -20 -18 -38 -15
-47 11 -39 26 8 57 41 57 61 0 16 -6 17 -15 3z"/>
<path d="M2465 3909 c-4 -6 -5 -13 -2 -16 7 -7 27 6 27 18 0 12 -17 12 -25 -2z"/>
<path d="M451 3869 c-12 -17 -20 -37 -17 -45 3 -8 1 -14 -4 -14 -6 0 -10 -7
-10 -16 0 -8 -7 -23 -16 -31 -11 -11 -14 -27 -11 -49 4 -21 1 -34 -6 -37 -7
-2 -13 -17 -13 -33 -1 -16 -10 -60 -19 -99 -10 -38 -19 -88 -20 -110 -2 -22
-6 -50 -10 -62 -6 -18 -3 -23 11 -23 14 0 15 -3 6 -12 -15 -15 -16 -78 -1 -78
8 0 7 -6 -2 -16 -12 -15 -15 -31 -19 -94 0 -8 1 -26 3 -40 1 -14 -1 -28 -6
-31 -5 -4 -4 -22 4 -42 9 -27 10 -47 2 -80 -7 -31 -6 -69 2 -123 7 -50 8 -95
2 -122 -5 -27 -5 -47 1 -55 5 -7 9 -43 8 -82 -3 -76 21 -160 45 -160 16 0 23
51 10 80 -23 55 -28 83 -18 100 7 12 6 24 -1 35 -5 9 -8 39 -6 66 9 113 12
315 4 348 -5 25 -4 36 4 36 8 0 12 46 13 153 1 83 8 174 15 201 10 40 10 50 0
54 -10 3 -10 7 0 20 7 8 18 38 24 66 15 71 35 147 45 171 4 11 10 40 13 65 2
24 10 46 15 48 6 2 11 12 11 23 0 30 -33 23 -59 -12z m-66 -438 c-8 -13 -35
-15 -35 -2 0 5 8 11 18 13 21 5 26 2 17 -11z"/>
<path d="M1385 3856 c-11 -6 -22 -13 -25 -16 -3 -3 -16 -7 -30 -8 -28 -4 -109
-61 -110 -77 0 -6 -9 -16 -19 -22 -11 -7 -26 -25 -35 -40 -30 -57 -46 -95 -41
-103 3 -4 0 -30 -5 -56 -17 -83 -41 -236 -46 -289 -2 -27 -6 -69 -10 -92 -4
-26 -2 -43 4 -43 14 0 22 24 15 49 -3 12 0 27 6 35 7 8 13 29 15 48 2 18 5 40
9 48 13 34 18 90 7 90 -5 0 -10 4 -10 10 0 5 6 7 14 4 16 -6 22 7 31 72 4 27
14 61 22 77 12 24 12 27 -2 27 -8 0 -15 7 -15 15 0 9 7 15 16 13 11 -2 21 8
28 30 6 18 16 36 22 40 6 4 19 23 30 42 24 43 43 59 71 60 12 0 25 5 28 10 7
12 45 13 45 2 0 -15 -34 -39 -63 -46 -22 -5 -27 -11 -22 -25 3 -11 1 -22 -5
-26 -5 -3 -10 1 -10 9 0 9 -4 16 -9 16 -11 0 -71 -97 -71 -116 0 -8 -4 -22 -9
-32 -5 -9 -14 -39 -20 -66 -10 -42 -9 -52 3 -64 14 -14 16 -12 26 13 6 16 14
49 17 74 3 25 14 54 24 64 11 10 19 24 19 32 0 8 9 19 19 25 11 5 22 19 26 29
3 11 15 23 26 26 10 4 19 13 19 21 0 8 5 14 10 14 6 0 10 -4 10 -9 0 -12 49
-21 56 -10 2 4 24 -12 49 -37 36 -38 48 -44 67 -38 20 6 21 5 9 -10 -11 -13
-12 -22 -2 -42 6 -14 11 -35 11 -48 0 -13 6 -29 14 -36 10 -7 12 -19 7 -31
-11 -30 -1 -89 15 -89 8 0 14 -7 14 -15 0 -8 -5 -15 -11 -15 -7 0 -10 -37 -10
-107 1 -60 1 -137 2 -173 0 -36 5 -66 10 -68 15 -6 10 -22 -6 -22 -11 0 -15
-11 -15 -42 0 -24 -5 -70 -10 -103 -6 -40 -6 -61 0 -63 16 -6 12 -22 -5 -22
-9 0 -15 -9 -15 -22 0 -22 -57 -176 -72 -193 -4 -5 -8 -20 -8 -33 0 -14 -10
-40 -22 -60 -13 -21 -21 -51 -21 -78 0 -24 -4 -41 -8 -38 -10 6 -73 -115 -65
-123 3 -3 1 -14 -4 -23 -5 -10 -12 -35 -14 -55 -5 -40 -16 -60 -16 -30 0 12
-9 6 -29 -21 -15 -22 -40 -53 -55 -68 -14 -16 -26 -39 -26 -52 0 -12 -3 -29
-6 -38 -4 -11 -1 -16 10 -16 9 0 16 5 16 10 0 6 11 20 25 32 14 12 25 30 25
40 0 10 4 18 8 18 12 0 62 79 62 96 0 9 4 13 9 10 18 -11 44 72 38 119 -4 29
-3 45 4 45 6 0 9 -7 6 -14 -4 -10 -1 -13 9 -9 8 3 17 17 20 32 4 14 10 31 13
36 4 6 8 24 10 40 1 17 9 37 16 45 7 8 17 32 21 54 3 21 16 48 27 59 16 16 17
21 6 29 -11 8 -12 10 -1 15 7 3 18 16 23 30 7 20 6 28 -8 39 -12 9 -14 13 -5
14 24 0 42 -27 38 -57 -7 -41 -32 -118 -49 -145 -8 -13 -25 -57 -38 -98 -12
-41 -30 -93 -40 -115 -10 -22 -21 -59 -25 -83 -5 -29 -18 -54 -43 -81 -47 -50
-101 -127 -101 -144 0 -8 -9 -22 -20 -32 -11 -10 -20 -25 -20 -34 0 -9 -24
-31 -53 -49 -44 -27 -63 -32 -105 -31 -29 1 -52 6 -52 11 0 4 -4 8 -10 8 -5 0
-10 -7 -10 -15 0 -8 9 -15 19 -15 11 0 22 -4 25 -9 3 -5 33 -9 67 -10 52 0 60
2 55 15 -4 12 -2 15 9 10 8 -3 15 0 15 6 0 13 36 45 73 64 29 16 35 29 15 37
-8 4 -7 6 4 6 10 1 21 16 29 39 6 20 20 45 30 55 11 10 19 22 19 27 0 6 9 19
20 30 17 17 20 17 20 4 0 -9 -6 -28 -14 -42 -8 -15 -29 -58 -47 -95 -19 -38
-40 -80 -47 -94 -8 -13 -11 -27 -8 -30 10 -10 46 29 46 49 0 10 5 18 11 18 6
0 8 7 5 16 -4 11 1 18 14 21 12 3 20 14 20 25 0 11 6 34 14 51 19 44 46 151
46 182 0 14 5 25 10 25 6 0 10 7 10 16 0 9 9 27 19 41 11 13 23 44 27 68 3 24
12 46 20 49 20 8 18 46 -3 46 -12 0 -11 5 9 23 29 26 41 54 27 63 -6 3 -4 10
6 17 18 14 39 166 24 182 -12 12 -12 38 0 30 14 -8 23 30 16 69 -4 19 -2 43 4
54 7 14 8 23 1 27 -7 4 -6 13 1 27 9 17 8 24 -5 33 -20 15 -21 29 -1 21 10 -3
15 1 16 14 3 61 2 78 -4 93 -3 9 -3 18 2 21 4 3 8 67 9 144 0 76 2 143 3 148
1 5 1 28 0 51 -1 33 -4 41 -16 37 -20 -8 -19 6 3 22 16 13 16 15 -2 29 -11 8
-17 18 -13 21 4 4 -2 13 -13 21 -23 17 -27 43 -5 43 18 0 18 1 4 37 -37 91
-40 94 -62 88 -17 -5 -18 -4 -8 4 12 8 12 12 2 25 -17 20 -50 21 -57 1 -9 -22
-23 -8 -16 17 4 18 2 20 -16 16 -13 -4 -27 1 -38 13 -22 24 -15 30 40 35 39 3
49 -1 82 -31 21 -19 43 -35 49 -35 6 0 17 -21 23 -47 7 -27 21 -66 32 -88 23
-50 30 -87 37 -192 4 -62 9 -83 19 -83 19 0 18 -16 -1 -24 -11 -4 -14 -21 -13
-73 1 -37 -1 -74 -5 -80 -5 -7 -4 -20 1 -30 6 -10 6 -29 1 -47 -11 -40 -8
-126 6 -126 5 0 4 -4 -4 -9 -8 -5 -15 -31 -17 -62 -13 -230 -34 -429 -45 -429
-5 0 -9 -12 -9 -27 0 -16 -9 -41 -20 -58 -11 -17 -20 -47 -20 -68 0 -24 -5
-40 -15 -43 -8 -3 -17 -22 -20 -42 -3 -21 -10 -45 -16 -54 -5 -10 -9 -27 -9
-38 0 -12 -10 -34 -22 -50 -13 -18 -22 -46 -23 -67 0 -21 -8 -54 -17 -73 -9
-19 -21 -56 -28 -82 -8 -32 -16 -45 -26 -41 -8 3 -16 -5 -19 -20 -7 -25 -52
-72 -70 -72 -5 0 -15 -11 -22 -24 -6 -14 -26 -29 -44 -35 -35 -12 -51 -36 -25
-36 20 0 109 44 148 73 16 12 26 27 23 35 -6 17 12 52 28 52 15 0 41 56 34 75
-3 7 5 30 19 50 13 20 24 41 24 48 0 7 10 32 21 57 54 113 54 113 41 118 -19
6 -14 30 6 28 13 -1 17 7 17 34 0 19 6 45 12 57 7 12 10 28 7 36 -3 8 1 17 9
20 8 3 18 25 22 48 4 24 14 49 21 57 8 7 15 25 16 40 1 28 4 50 13 117 3 22 7
69 9 105 2 36 11 121 20 190 10 69 18 152 18 184 0 33 4 70 9 83 7 18 5 25 -6
29 -8 4 -15 10 -15 16 0 5 4 7 9 3 15 -9 24 34 11 50 -6 8 -8 20 -4 26 13 22
10 129 -3 129 -16 0 -17 26 -2 36 13 8 6 77 -16 161 -17 66 -22 74 -40 66 -18
-6 -19 10 -3 37 16 25 -14 95 -37 86 -9 -3 -15 0 -15 8 0 7 -9 21 -20 31 -11
10 -20 13 -20 7 0 -7 -4 -12 -10 -12 -16 0 -11 17 6 24 9 4 24 0 34 -9 36 -33
43 -1 7 33 -23 22 -24 22 -41 3 -9 -10 -26 -21 -37 -24 -15 -4 -19 0 -19 19 0
21 -4 24 -40 24 -22 0 -40 -5 -40 -10 0 -7 -6 -7 -17 -2 -12 6 -25 6 -38 -2z
m145 -171 c10 -12 10 -15 -4 -15 -9 0 -16 7 -16 15 0 8 2 15 4 15 2 0 9 -7 16
-15z m190 -180 c0 -8 -4 -15 -10 -15 -5 0 -10 7 -10 15 0 8 5 15 10 15 6 0 10
-7 10 -15z m-70 -300 c0 -8 -4 -15 -10 -15 -5 0 -10 7 -10 15 0 8 5 15 10 15
6 0 10 -7 10 -15z"/>
<path d="M2482 3858 c5 -15 28 -18 29 -3 0 6 -7 12 -17 13 -10 3 -15 -1 -12
-10z"/>
<path d="M345 3838 c-30 -17 -35 -28 -35 -80 0 -26 -5 -50 -11 -53 -6 -4 -8
-13 -5 -21 3 -7 1 -16 -4 -19 -16 -10 -12 -37 8 -52 16 -14 16 -14 0 -9 -15 4
-18 -1 -18 -25 0 -23 4 -30 17 -27 12 2 21 21 29 63 7 33 10 63 8 67 -2 3 1 8
6 10 6 2 12 24 13 51 1 29 7 47 14 47 13 0 33 31 33 49 0 14 -30 13 -55 -1z"/>
<path d="M1490 3775 c0 -8 7 -15 15 -15 8 0 15 4 15 9 0 5 -7 11 -15 15 -9 3
-15 0 -15 -9z"/>
<path d="M1070 3766 c0 -8 -9 -18 -20 -21 -14 -5 -20 -14 -18 -28 2 -17 -2
-21 -17 -19 -13 1 -24 -6 -32 -23 -6 -14 -7 -25 -2 -25 19 0 8 -21 -16 -30
-28 -11 -32 -25 -10 -34 8 -3 15 -12 15 -21 0 -12 -6 -14 -26 -9 -26 7 -26 6
-19 -36 6 -37 5 -42 -9 -37 -9 4 -16 2 -16 -3 0 -6 0 -13 0 -17 0 -5 8 -8 19
-9 10 -1 23 -4 30 -8 15 -9 36 40 50 118 7 39 18 64 31 73 11 8 20 20 20 28 0
7 7 21 16 29 19 20 31 86 15 86 -6 0 -11 -6 -11 -14z"/>
<path d="M1913 3765 c-17 -19 -17 -19 11 -64 14 -21 23 -41 20 -44 -3 -3 -1
-22 4 -43 6 -22 13 -51 16 -66 4 -19 11 -26 21 -22 8 4 15 1 15 -5 0 -6 -7
-11 -15 -11 -24 0 -17 -30 8 -31 16 -1 18 -2 5 -6 -16 -4 -17 -17 -15 -113 2
-70 8 -114 16 -124 11 -13 11 -19 2 -30 -13 -16 -6 -96 11 -130 7 -12 6 -22
-1 -29 -16 -16 -13 -47 4 -47 8 0 15 -4 15 -10 0 -5 -7 -10 -15 -10 -16 0 -20
-32 -16 -115 2 -22 -4 -59 -12 -81 -12 -37 -12 -42 2 -52 14 -10 14 -11 -1
-11 -18 -1 -35 -42 -24 -60 4 -6 0 -21 -8 -33 -15 -23 -39 -175 -30 -190 9
-14 26 3 20 19 -3 8 1 24 9 36 9 13 15 44 15 74 0 29 5 53 10 53 6 0 10 15 10
34 0 19 5 38 10 41 12 7 31 -37 20 -45 -11 -7 -38 -150 -46 -240 -3 -41 -10
-93 -15 -116 -4 -22 -11 -74 -15 -115 -3 -40 -8 -77 -10 -80 -2 -3 -6 -49 -10
-101 -4 -65 -2 -98 5 -102 19 -12 34 44 37 139 2 50 8 115 14 145 6 30 17 104
25 163 8 60 18 113 21 119 10 16 12 420 2 441 -6 12 -5 17 7 17 12 0 15 13 16
63 0 34 2 78 4 97 2 19 0 52 -5 72 -9 45 -3 85 16 92 11 4 12 -4 7 -39 -4 -36
-2 -46 11 -51 19 -7 21 -24 3 -24 -10 0 -13 -15 -11 -57 1 -32 3 -85 4 -118 1
-57 0 -82 -15 -248 -5 -55 -3 -71 9 -80 13 -11 13 -16 -4 -51 -13 -25 -16 -44
-11 -55 5 -9 8 -28 6 -43 -5 -39 22 -36 30 3 19 83 22 331 5 337 -6 2 -10 8
-10 13 0 4 7 6 16 2 15 -5 16 0 12 41 -3 26 -1 49 5 53 12 7 2 262 -12 276 -4
4 -6 28 -4 51 7 56 -12 70 -42 32 -28 -35 -36 -24 -35 51 0 32 -4 87 -10 123
-5 36 -10 72 -11 80 -1 32 -22 116 -34 140 -7 14 -16 42 -20 63 -8 39 -21 46
-42 22z"/>
<path d="M491 3675 c-13 -41 -21 -82 -18 -89 3 -8 -1 -20 -9 -27 -10 -8 -15
-27 -13 -53 1 -23 -2 -49 -6 -59 -4 -10 -2 -24 6 -33 8 -10 9 -18 3 -22 -14
-10 -37 -133 -28 -155 3 -9 2 -23 -4 -30 -11 -14 -10 -256 1 -274 4 -6 3 -14
-3 -18 -12 -8 -13 -69 -1 -93 5 -9 14 -29 20 -44 6 -16 14 -28 18 -28 5 0 9
52 10 114 1 88 -2 118 -13 127 -18 15 -18 40 0 33 8 -3 17 0 21 6 11 17 -4 60
-20 60 -8 0 -15 5 -15 10 0 6 6 10 14 10 14 0 17 15 32 158 5 54 4 61 -10 56
-9 -3 -16 -2 -16 4 0 5 10 13 23 16 21 6 21 7 3 21 -16 12 -17 17 -5 31 11 14
11 18 -4 29 -22 16 -22 28 1 21 15 -5 18 0 19 31 2 71 15 148 27 158 14 11 36
70 36 94 -1 13 -4 12 -16 -4 -15 -19 -15 -19 -12 -1 2 10 -2 21 -7 23 -6 2
-21 -31 -34 -72z"/>
<path d="M2467 3742 c-7 -11 23 -122 39 -148 8 -11 12 -29 8 -38 -4 -10 0 -22
9 -29 8 -7 17 -21 19 -31 5 -28 28 -32 28 -5 0 31 -22 99 -32 99 -4 0 -8 18
-8 40 0 28 -5 43 -16 47 -8 3 -13 12 -10 20 11 27 -23 68 -37 45z"/>
<path d="M1854 3713 c3 -8 6 -21 6 -29 0 -8 10 -19 23 -23 18 -7 19 -10 6 -15
-13 -6 -14 -13 -5 -41 6 -19 17 -35 23 -35 15 0 17 -17 3 -22 -15 -5 0 -108
16 -108 16 0 19 -26 5 -34 -5 -4 -9 -110 -9 -244 0 -130 -2 -255 -5 -277 -8
-70 -14 -109 -25 -165 -23 -116 -33 -196 -26 -213 3 -9 2 -17 -4 -17 -9 0 -16
-39 -28 -155 -3 -27 -12 -74 -20 -104 -9 -30 -13 -63 -10 -74 3 -11 -4 -37
-15 -58 -23 -46 -25 -87 -4 -96 9 -3 18 -3 21 0 8 7 55 267 83 452 6 39 19
112 31 164 23 110 23 104 11 96 -5 -3 -12 -1 -16 5 -3 5 5 15 18 21 15 7 24
18 22 28 -2 9 -4 19 -4 23 -1 4 -9 4 -18 1 -13 -5 -15 -2 -10 11 4 10 7 19 7
22 0 2 8 0 17 -3 12 -5 15 -2 10 10 -3 9 -2 19 3 22 16 10 12 35 -5 35 -8 0
-15 7 -15 15 0 8 7 15 16 15 13 0 15 21 12 157 -2 114 -6 160 -16 170 -11 11
-11 13 3 13 12 0 15 7 10 33 -3 17 -7 75 -9 127 -1 52 -8 104 -14 116 -6 11
-9 29 -6 40 2 10 -7 48 -20 84 -19 52 -28 65 -45 66 -15 1 -20 -3 -17 -13z"/>
<path d="M863 3685 c-3 -10 0 -21 8 -26 9 -6 10 -11 3 -16 -11 -9 -38 -65 -49
-103 -4 -17 -3 -21 3 -11 7 10 11 10 17 1 4 -7 -2 -18 -15 -27 -18 -12 -21
-22 -16 -48 4 -19 2 -36 -4 -40 -5 -3 -9 -32 -9 -63 1 -31 -2 -65 -6 -74 -4
-10 -5 -24 -2 -32 3 -8 3 -17 0 -20 -7 -7 -4 -128 3 -135 2 -2 10 2 19 9 9 7
19 10 23 6 4 -4 -2 -15 -13 -24 -11 -10 -21 -24 -21 -32 -1 -8 -3 -19 -4 -25
-6 -21 13 -95 24 -95 6 0 21 -3 34 -6 19 -6 22 -3 22 23 0 16 -3 33 -7 37 -5
4 -6 35 -4 68 2 40 -1 63 -9 68 -9 6 -9 12 0 30 7 13 9 38 6 59 -3 20 -6 56
-5 80 0 26 -5 47 -13 52 -10 6 -9 11 5 21 13 10 18 30 20 83 2 42 10 83 21
103 9 18 18 59 19 90 2 52 0 57 -21 60 -14 2 -25 -3 -29 -13z m-23 -470 c0 -7
6 -15 13 -18 9 -3 9 -7 0 -17 -12 -13 -37 -4 -28 10 3 5 1 11 -4 15 -6 3 -8
12 -5 20 7 17 24 10 24 -10z"/>
<path d="M1375 3661 c-40 -18 -85 -68 -85 -94 0 -7 -6 -19 -12 -26 -11 -10 -9
-15 6 -26 26 -20 39 -8 32 29 -4 20 -3 26 3 17 7 -11 17 -5 48 28 44 45 50 47
78 27 16 -12 17 -16 6 -30 -11 -13 -17 -14 -28 -4 -20 16 -67 -35 -88 -94 -20
-58 -19 -79 1 -71 12 4 15 2 12 -8 -3 -8 -12 -13 -21 -11 -16 3 -25 -34 -29
-118 0 -25 -5 -53 -10 -63 -12 -24 -3 -34 14 -15 24 26 36 54 43 106 4 29 11
54 16 58 11 6 12 81 2 87 -5 2 -3 2 4 1 15 -4 24 10 32 50 5 21 15 33 39 43
31 13 33 12 44 -14 15 -34 27 -43 45 -36 7 3 13 0 13 -7 0 -6 -5 -8 -10 -5 -6
3 -13 -1 -17 -10 -5 -15 10 -34 28 -35 5 0 11 50 10 92 0 23 -68 126 -91 138
-25 13 -38 12 -85 -9z m136 -104 c-13 -13 -26 -3 -16 12 3 6 11 8 17 5 6 -4 6
-10 -1 -17z"/>
<path d="M1066 3645 c-9 -23 -8 -25 9 -25 20 0 19 -17 -2 -29 -17 -10 -17 -10
0 -11 11 0 17 -6 14 -12 -2 -7 -13 -12 -25 -10 -22 3 -27 -7 -37 -79 -5 -33
-11 -46 -22 -45 -9 0 -18 -5 -21 -13 -4 -11 2 -13 27 -8 26 6 31 4 31 -13 0
-13 -5 -17 -14 -14 -17 6 -23 -13 -25 -76 -1 -32 1 -41 8 -30 6 8 14 11 18 6
4 -4 -2 -15 -14 -23 -23 -16 -31 -43 -13 -43 6 0 10 -7 10 -15 0 -8 -5 -15
-10 -15 -6 0 -10 -12 -10 -27 1 -97 -8 -215 -18 -225 -7 -7 -12 -22 -12 -35 0
-13 -7 -26 -15 -30 -26 -10 -12 -82 22 -109 15 -13 32 -22 38 -20 13 3 65 106
65 128 0 10 9 27 20 38 11 11 22 32 25 47 4 16 13 45 22 65 9 21 17 45 18 55
1 10 5 26 9 35 5 10 6 35 4 57 -2 23 2 43 10 51 7 6 12 22 10 33 -4 28 -38 36
-38 10 0 -10 -9 -36 -20 -58 -24 -47 -25 -59 -5 -75 14 -12 13 -16 -6 -36 -11
-12 -18 -28 -14 -34 4 -6 -1 -20 -10 -30 -11 -12 -14 -26 -10 -39 5 -15 2 -21
-9 -21 -9 0 -16 -6 -16 -14 0 -7 -7 -19 -15 -26 -12 -10 -13 -15 -3 -28 10
-12 10 -16 1 -19 -7 -3 -13 -10 -13 -18 0 -7 -7 -18 -15 -25 -8 -7 -15 -23
-15 -36 0 -15 -6 -24 -15 -24 -30 0 -3 124 37 168 14 16 31 39 37 51 10 19 9
21 -12 21 -33 0 -36 5 -25 56 7 33 7 49 -2 59 -10 12 -9 15 4 15 13 0 16 11
17 55 1 30 2 70 3 88 1 17 -3 35 -9 39 -6 5 -3 8 8 8 17 0 19 8 21 85 1 22 5
46 9 53 5 6 5 17 2 22 -3 6 1 17 9 26 9 9 17 35 18 60 0 24 1 50 2 56 2 19
-31 21 -38 3z"/>
<path d="M272 3513 c-6 -15 -14 -41 -18 -58 -7 -27 -5 -28 8 -17 10 7 19 9 22
4 3 -6 -4 -12 -15 -15 -26 -7 -20 -32 7 -32 16 0 20 10 25 60 4 40 2 64 -6 73
-10 11 -14 8 -23 -15z"/>
<path d="M1433 3492 c-6 -4 -14 -19 -17 -32 -3 -14 -19 -74 -35 -135 -16 -60
-32 -130 -36 -154 -4 -24 -16 -63 -27 -88 -11 -25 -17 -47 -14 -51 4 -3 -6
-18 -20 -33 -23 -24 -64 -106 -81 -163 -4 -11 -14 -27 -25 -38 -10 -10 -18
-27 -18 -38 0 -11 -3 -20 -8 -20 -4 0 -16 -17 -27 -37 -11 -21 -34 -52 -51
-69 -28 -28 -36 -31 -84 -29 -39 3 -56 8 -63 22 -6 10 -25 34 -43 54 -17 20
-35 47 -39 59 -6 18 -9 20 -17 9 -7 -10 -8 -8 -3 7 9 34 -3 55 -25 42 -16 -11
-17 -15 -3 -55 9 -25 21 -43 30 -43 8 0 13 -6 10 -12 -2 -7 2 -26 11 -42 12
-26 16 -27 24 -13 12 22 28 13 21 -12 -10 -38 102 -103 122 -71 3 6 15 10 27
10 29 0 101 80 86 97 -8 10 -6 13 13 11 18 -2 25 4 32 27 14 44 51 115 59 115
5 0 8 9 8 19 0 11 5 23 10 26 6 4 7 11 4 17 -4 6 0 14 7 19 22 14 29 11 29
-11 0 -27 18 -25 29 3 20 53 39 154 34 181 -5 24 -3 27 13 22 16 -4 22 3 34
42 17 54 15 82 -6 82 -8 0 -14 5 -14 11 0 6 6 9 14 6 25 -10 53 81 35 114 -6
12 -4 18 10 22 14 3 20 18 25 61 8 71 0 88 -31 68z"/>
<path d="M1254 3455 c-3 -19 -4 -41 -1 -49 3 -8 2 -16 -3 -18 -12 -4 -30 -138
-27 -196 1 -23 -2 -42 -7 -42 -4 0 -5 -7 -2 -16 3 -8 2 -12 -4 -9 -6 4 -10 -9
-10 -31 0 -21 -6 -45 -14 -53 -22 -25 -46 -90 -35 -96 14 -9 11 -25 -6 -25
-14 0 -20 -13 -15 -35 1 -5 -5 -14 -14 -20 -18 -14 -36 -57 -36 -88 0 -28 -66
-98 -86 -90 -9 3 -12 13 -8 29 5 17 2 24 -9 24 -8 0 -17 -5 -19 -11 -8 -23
-35 4 -44 44 -5 25 -14 41 -21 39 -16 -3 -17 15 -2 20 6 2 8 14 4 29 -8 31
-50 58 -66 42 -13 -13 -2 -79 17 -98 8 -7 14 -23 14 -34 0 -11 7 -24 16 -29 8
-5 21 -19 27 -32 7 -13 21 -28 32 -34 11 -6 24 -17 28 -24 5 -7 16 -11 25 -8
9 2 29 7 45 10 18 4 27 13 27 26 0 13 5 18 15 14 9 -4 16 3 21 21 6 24 22 56
64 125 5 8 11 27 14 41 4 16 14 29 27 32 17 5 20 11 15 31 -4 18 -2 26 7 26 8
0 14 6 15 13 1 6 4 24 8 40 4 17 2 27 -5 27 -6 0 -11 5 -11 11 0 6 8 8 18 5
27 -9 56 27 48 58 -4 16 -1 26 10 30 8 3 12 10 9 16 -12 19 -23 10 -42 -35
-10 -25 -22 -45 -26 -45 -10 0 -2 105 12 145 5 17 13 62 17 100 10 99 11 107
19 133 6 18 4 22 -13 22 -16 0 -23 -8 -28 -35z"/>
<path d="M915 3390 c-4 -22 -4 -44 0 -49 3 -6 2 -19 -4 -29 -19 -36 -12 -342
9 -368 22 -26 30 -2 35 114 5 101 -3 139 -19 97 -3 -8 -10 -15 -15 -15 -7 0
-6 9 1 25 6 14 17 25 24 25 7 0 15 12 17 28 9 48 6 152 -3 152 -5 0 -7 13 -4
28 5 23 2 28 -14 29 -16 1 -22 -6 -27 -37z"/>
<path d="M1516 3408 c4 -13 7 -31 6 -41 0 -11 10 -22 25 -28 32 -12 40 -5 25
24 -6 12 -12 31 -14 42 -2 12 -12 21 -27 23 -20 3 -22 1 -15 -20z"/>
<path d="M2576 3421 c-9 -13 2 -51 14 -51 15 0 19 28 6 46 -9 12 -15 14 -20 5z"/>
<path d="M1167 3393 c-4 -3 -7 -28 -7 -55 0 -42 3 -49 18 -46 22 4 32 108 9
108 -7 0 -17 -3 -20 -7z"/>
<path d="M1471 3362 c-6 -15 -15 -67 -20 -117 -5 -49 -17 -110 -26 -135 -9
-25 -19 -61 -22 -80 -3 -19 -10 -41 -17 -49 -10 -12 -21 -50 -57 -195 -5 -21
-7 -48 -3 -60 6 -18 5 -19 -8 -8 -13 11 -17 8 -22 -21 -4 -19 -4 -42 0 -51 3
-9 1 -16 -5 -16 -6 0 -11 -6 -11 -14 0 -7 -7 -19 -15 -26 -9 -7 -13 -21 -10
-31 5 -14 2 -17 -9 -13 -12 4 -15 2 -10 -9 3 -8 1 -18 -5 -22 -13 -8 -15 -45
-2 -45 14 0 71 76 71 94 0 9 7 28 16 42 9 13 14 27 11 31 -4 3 0 18 7 32 27
49 46 110 40 126 -4 10 -2 15 6 13 7 -2 18 16 25 42 7 25 31 97 54 161 45 131
55 193 35 214 -18 18 -18 26 1 19 11 -5 15 1 15 25 0 18 -5 31 -12 31 -10 0
-9 3 1 9 10 7 11 13 2 30 -7 12 -9 26 -6 31 3 5 1 11 -4 14 -5 3 -14 -7 -20
-22z m-13 -289 c-5 -25 -28 -28 -28 -4 0 12 6 21 16 21 9 0 14 -7 12 -17z"/>
<path d="M254 3363 c-3 -10 -11 -31 -17 -47 -9 -23 -8 -30 6 -38 9 -5 17 -15
17 -23 0 -8 6 -12 13 -10 17 7 17 127 0 132 -7 3 -16 -4 -19 -14z"/>
<path d="M2590 3305 c0 -19 5 -35 10 -35 6 0 10 16 10 35 0 19 -4 35 -10 35
-5 0 -10 -16 -10 -35z"/>
<path d="M1544 3286 c4 -19 2 -37 -3 -41 -6 -3 -10 -25 -9 -49 0 -23 -3 -52
-7 -65 -4 -13 -2 -28 5 -36 10 -12 9 -16 -3 -21 -15 -5 -30 -33 -33 -59 0 -5
-4 -19 -8 -30 -5 -11 -14 -37 -22 -58 -8 -21 -12 -42 -9 -47 2 -4 -2 -13 -10
-20 -8 -7 -15 -20 -15 -29 0 -10 -7 -26 -15 -37 -8 -10 -15 -28 -15 -38 0 -27
-18 -81 -46 -144 -13 -29 -24 -63 -24 -76 0 -13 -7 -26 -15 -30 -8 -3 -15 -10
-15 -16 0 -13 -25 -40 -36 -40 -11 0 -33 -33 -34 -50 0 -8 -18 -28 -40 -44
-27 -20 -37 -33 -30 -40 18 -18 11 -32 -17 -34 -25 -2 -45 -22 -68 -67 -6 -11
-23 -21 -39 -23 -20 -3 -26 -8 -22 -19 3 -8 6 -19 6 -24 0 -5 5 -9 11 -9 5 0
8 4 5 9 -3 5 6 12 22 16 39 10 55 25 42 40 -8 9 -8 15 0 20 7 4 14 -2 17 -14
5 -21 7 -21 24 -5 11 9 19 23 19 31 0 8 4 12 9 8 5 -3 12 3 16 14 3 10 14 26
25 36 11 10 20 29 20 42 0 12 5 23 10 23 6 0 20 16 31 35 20 33 49 48 49 25 0
-5 5 -10 10 -10 6 0 10 11 10 24 0 40 12 86 21 80 5 -3 9 2 9 10 0 9 4 16 8
16 8 0 47 104 47 126 0 6 7 19 15 29 8 10 15 35 15 56 0 20 4 37 10 36 5 -1 9
15 9 36 -1 25 3 37 12 37 8 0 21 17 30 38 9 21 18 31 21 24 3 -7 0 -26 -7 -42
-7 -16 -10 -37 -6 -45 3 -9 -1 -18 -9 -21 -7 -3 -11 -12 -8 -20 3 -8 -2 -25
-11 -39 -26 -40 -50 -119 -37 -123 6 -2 0 -18 -16 -39 -19 -24 -28 -50 -31
-89 -2 -29 -8 -51 -13 -48 -5 3 -9 -3 -9 -13 0 -11 -11 -34 -25 -53 -27 -36
-32 -78 -14 -112 9 -18 8 -19 -10 -13 -15 5 -23 1 -27 -12 -3 -10 -11 -27 -17
-38 -6 -11 -19 -35 -29 -54 -10 -19 -31 -48 -48 -64 -48 -47 -37 -124 12 -80
27 24 38 55 26 70 -14 17 0 35 21 28 13 -4 22 4 34 32 9 21 21 45 26 53 17 27
41 88 41 103 0 9 5 17 10 19 11 3 38 89 47 146 3 19 12 36 19 39 8 3 14 14 14
24 0 17 18 66 41 111 5 10 9 27 9 37 0 11 4 22 9 26 6 3 13 27 16 53 4 26 11
60 16 76 6 19 6 33 -1 40 -14 14 -12 26 4 26 8 0 16 15 20 38 10 63 7 96 -14
137 -24 47 -24 45 -5 45 12 0 15 14 15 63 0 89 -10 137 -27 137 -12 0 -14 -8
-9 -34z m16 -251 c0 -8 -4 -15 -10 -15 -5 0 -10 7 -10 15 0 8 5 15 10 15 6 0
10 -7 10 -15z m-10 -71 c0 -14 -4 -23 -10 -19 -5 3 -10 15 -10 26 0 10 5 19
10 19 6 0 10 -12 10 -26z m-90 -433 c0 -12 -20 -25 -27 -18 -7 7 6 27 18 27 5
0 9 -4 9 -9z m-220 -479 c0 -13 -12 -22 -22 -16 -10 6 -1 24 13 24 5 0 9 -4 9
-8z"/>
<path d="M242 3204 c-25 -17 -30 -39 -7 -30 9 3 15 0 15 -9 0 -8 -4 -15 -9
-15 -14 0 -20 -92 -8 -111 8 -14 8 -27 -2 -55 -11 -30 -11 -38 0 -45 11 -7 12
-12 2 -27 -13 -21 -1 -42 24 -42 18 0 25 128 11 195 -8 32 -6 42 8 52 12 9 15
20 10 40 -4 15 -7 36 -7 46 0 21 -8 21 -37 1z"/>
<path d="M2223 3000 c2 -55 7 -103 10 -107 4 -3 2 -12 -5 -20 -8 -10 -8 -20 0
-38 7 -16 8 -35 1 -57 -13 -46 -11 -132 3 -146 9 -9 9 -12 0 -12 -7 0 -11 -3
-10 -7 1 -5 -1 -26 -5 -48 -3 -22 -3 -64 2 -92 4 -29 5 -54 1 -55 -14 -5 -22
-68 -10 -68 9 0 9 -4 -1 -16 -10 -13 -10 -17 2 -25 8 -5 9 -9 2 -9 -18 0 -53
-118 -53 -180 0 -31 -3 -60 -7 -64 -11 -11 -13 -75 -3 -81 5 -3 11 -1 15 5 11
18 35 174 29 192 -3 10 -1 18 4 18 5 0 12 19 15 41 3 23 11 47 17 53 9 8 11
-3 6 -49 -10 -113 -17 -160 -26 -195 -11 -41 -21 -117 -25 -180 -2 -25 -12
-78 -24 -119 -19 -68 -20 -91 -3 -91 14 0 45 94 44 136 0 24 3 44 7 44 28 0
64 467 39 497 -8 10 -7 17 5 26 10 7 16 29 17 57 3 75 0 110 -7 109 -22 -4
-33 3 -33 17 0 13 3 14 15 4 16 -13 50 -6 41 9 -7 11 -19 167 -15 201 1 14 2
87 2 162 0 111 -4 143 -17 163 -30 45 -37 30 -33 -75z"/>
<path d="M1055 3070 c-13 -21 -15 -40 -4 -40 12 0 22 25 17 42 -3 9 -7 8 -13
-2z"/>
<path d="M507 2793 c2 -43 8 -82 13 -87 6 -6 10 -18 10 -28 0 -16 3 -16 20 -6
15 9 19 19 14 33 -3 11 -6 31 -6 45 0 14 -7 33 -15 43 -14 15 -15 17 -1 17 9
0 19 7 22 16 8 22 8 26 -3 19 -5 -3 -16 2 -24 10 -28 28 -34 16 -30 -62z"/>
<path d="M1270 2832 c0 -10 -5 -23 -11 -29 -8 -8 -8 -17 1 -32 12 -24 29 -20
29 7 0 9 3 29 7 45 5 21 3 27 -10 27 -9 0 -16 -8 -16 -18z"/>
<path d="M250 2836 c0 -3 4 -16 9 -29 7 -19 6 -27 -4 -30 -9 -4 -12 -20 -11
-49 2 -36 6 -44 25 -46 20 -3 21 -1 11 18 -8 16 -9 30 -1 52 18 51 14 88 -9
88 -11 0 -20 -2 -20 -4z"/>
<path d="M592 2803 c-15 -28 -2 -147 19 -167 5 -6 9 -20 9 -32 0 -40 46 -129
74 -142 15 -7 26 -20 26 -31 0 -43 85 -171 113 -171 5 0 24 -12 43 -27 27 -20
37 -24 44 -14 9 15 2 51 -11 51 -23 0 -109 63 -109 80 0 11 -11 30 -25 44 -14
14 -25 32 -25 41 0 8 -4 15 -10 15 -5 0 -10 8 -10 19 0 10 -11 35 -25 55 -14
21 -25 51 -25 71 0 23 -7 39 -22 52 -13 10 -24 29 -26 43 -13 122 -22 148 -40
113z"/>
<path d="M400 2751 c0 -11 -3 -26 -6 -34 -4 -12 0 -14 15 -10 21 5 26 19 15
47 -9 22 -24 20 -24 -3z"/>
<path d="M1221 2720 c-7 -22 -9 -45 -6 -50 3 -6 0 -10 -8 -10 -7 0 -20 -12
-28 -27 -8 -16 -20 -32 -26 -36 -18 -11 -16 -27 2 -27 8 0 15 -4 15 -10 0 -28
29 -4 52 43 43 85 52 124 34 142 -20 21 -21 20 -35 -25z"/>
<path d="M467 2723 c-2 -10 -5 -33 -6 -52 -1 -26 2 -32 14 -27 13 5 14 2 5
-15 -8 -15 -8 -29 -1 -51 6 -17 11 -44 11 -59 0 -16 5 -29 10 -29 6 0 10 -7
10 -15 0 -8 9 -30 20 -50 11 -20 20 -44 20 -54 0 -10 7 -24 15 -31 8 -7 15
-19 15 -26 0 -8 9 -14 20 -14 16 0 19 -5 15 -23 -6 -23 20 -59 34 -47 3 3 7
-5 9 -18 2 -12 12 -27 23 -32 10 -6 19 -17 19 -25 0 -21 17 -18 30 4 14 27 13
29 -12 33 -14 2 -24 11 -26 23 -2 11 -9 25 -16 30 -7 6 -27 41 -45 78 -18 38
-39 71 -47 74 -8 3 -12 9 -9 13 3 5 1 11 -5 15 -5 3 -10 17 -10 31 0 14 -7 27
-16 31 -8 3 -13 12 -10 19 3 8 -4 29 -15 48 -11 19 -19 45 -17 58 4 34 -12
128 -22 128 -5 0 -11 -8 -13 -17z"/>
<path d="M409 2684 c-13 -12 -14 -23 -6 -60 6 -24 14 -44 18 -44 4 0 4 -13 -1
-30 -7 -23 -5 -30 5 -30 23 0 25 14 11 66 -7 28 -11 64 -8 82 5 36 3 38 -19
16z"/>
<path d="M2604 2669 c-9 -16 12 -33 31 -25 14 5 15 9 5 21 -15 18 -26 19 -36
4z"/>
<path d="M281 2658 c-1 -9 -8 -21 -17 -26 -14 -8 -13 -10 5 -15 27 -7 34 5 22
35 -7 16 -10 18 -10 6z"/>
<path d="M545 2637 c-8 -30 10 -113 30 -137 7 -8 15 -26 18 -40 5 -19 13 -25
37 -27 16 -1 30 2 30 8 0 13 -26 39 -39 39 -6 0 -8 6 -5 14 3 7 -2 30 -10 51
-9 21 -16 45 -16 55 0 10 -9 28 -19 41 l-19 24 -7 -28z"/>
<path d="M264 2563 c-4 -24 -3 -38 4 -41 6 -2 9 -9 7 -15 -6 -15 12 -44 20
-35 14 13 -1 128 -16 128 -4 0 -11 -17 -15 -37z"/>
<path d="M2395 2568 c-13 -33 -21 -107 -14 -120 4 -8 5 -27 2 -43 -12 -69 -14
-175 -3 -175 6 0 8 -5 3 -12 -12 -21 -16 -49 -17 -135 -1 -46 -4 -83 -7 -83
-4 0 -9 -17 -13 -37 -3 -21 -8 -56 -11 -78 -4 -22 -11 -50 -17 -62 -8 -17 -8
-26 1 -37 10 -12 9 -18 -6 -33 -22 -22 -48 -81 -40 -90 4 -3 9 2 13 11 3 9 12
16 19 16 24 0 45 30 45 63 0 18 6 44 14 58 7 14 17 53 21 85 4 32 9 67 11 79
5 21 11 74 19 165 3 30 8 70 11 87 4 18 3 41 -1 50 -5 10 -7 52 -5 93 7 138 4
204 -8 208 -7 2 -14 -2 -17 -10z"/>
<path d="M2459 2578 c-7 -35 -6 -154 1 -168 7 -13 7 -28 0 -46 -7 -17 -7 -30
-1 -33 6 -4 6 -24 -1 -56 -8 -36 -7 -54 1 -67 9 -14 9 -33 -1 -78 -11 -53 -10
-61 6 -79 17 -19 7 -39 -14 -26 -6 4 -10 -5 -10 -20 0 -15 -5 -36 -11 -47 -7
-12 -15 -47 -19 -77 -12 -79 -28 -140 -45 -165 -8 -11 -15 -28 -15 -37 0 -22
-30 -82 -49 -96 -13 -9 -14 -16 -4 -31 9 -16 7 -22 -15 -38 -45 -33 -62 -53
-62 -75 0 -23 -73 -106 -102 -115 -10 -3 -18 -11 -18 -19 0 -11 8 -11 38 -3
24 6 53 27 84 61 49 54 57 72 36 80 -8 3 -6 6 4 6 10 1 25 13 35 29 9 15 24
36 34 47 10 11 27 49 39 85 12 36 29 73 37 82 9 10 19 34 24 55 26 118 38 163
44 174 5 7 7 31 7 55 -1 23 2 45 7 48 4 3 8 38 9 77 0 43 5 75 12 79 17 10 1
132 -19 147 -14 11 -14 12 2 13 16 0 17 6 11 48 -8 55 -12 64 -25 57 -5 -4 -9
-2 -9 3 0 6 7 13 16 16 13 5 15 15 10 47 -4 23 -13 48 -21 56 -8 8 -15 13 -16
11z m-119 -997 c0 -5 -7 -14 -15 -21 -12 -10 -15 -10 -15 2 0 8 3 18 7 21 9
10 23 9 23 -2z"/>
<path d="M443 2513 c-19 -7 -16 -53 3 -53 11 0 14 -5 10 -16 -4 -9 -1 -41 6
-70 12 -50 14 -53 38 -47 36 8 36 9 10 56 -14 23 -27 62 -30 86 -5 44 -13 54
-37 44z"/>
<path d="M1160 2475 c-7 -8 -9 -15 -5 -15 3 0 -3 -12 -14 -26 -12 -15 -21 -32
-21 -39 0 -7 -9 -15 -19 -18 -11 -2 -28 -25 -39 -51 -12 -25 -26 -46 -31 -46
-15 0 -90 -53 -91 -64 0 -4 17 -5 38 -2 29 6 53 24 115 89 48 51 77 89 77 103
0 17 4 21 20 17 28 -7 37 23 15 47 -22 24 -29 25 -45 5z"/>
<path d="M282 2438 c6 -18 28 -21 28 -4 0 9 -7 16 -16 16 -9 0 -14 -5 -12 -12z"/>
<path d="M2050 2423 c0 -5 -5 -36 -10 -71 -6 -35 -13 -80 -15 -100 -2 -20 -7
-47 -11 -59 -4 -16 -2 -23 7 -23 10 -1 8 -4 -3 -11 -25 -14 -26 -91 -2 -82 12
4 15 2 12 -8 -3 -8 -11 -13 -18 -11 -8 2 -11 -10 -8 -43 2 -25 0 -45 -3 -45
-6 0 -30 -103 -25 -108 2 -1 10 0 18 3 14 6 23 45 53 225 7 39 21 142 29 210
3 25 9 64 12 88 5 38 3 42 -15 42 -12 0 -21 -3 -21 -7z"/>
<path d="M630 2404 c0 -6 9 -23 20 -37 11 -14 20 -30 20 -37 0 -6 14 -29 32
-51 23 -29 39 -39 60 -39 15 0 28 4 28 8 0 12 -28 34 -64 52 -21 11 -25 16
-13 18 13 3 15 8 7 22 -7 12 -17 17 -28 14 -14 -5 -14 -4 -3 4 24 17 -2 62
-34 60 -14 -1 -25 -8 -25 -14z"/>
<path d="M387 2348 c3 -29 10 -54 15 -56 4 -2 8 -10 8 -18 0 -8 4 -14 8 -14 5
0 16 -18 26 -41 10 -22 24 -43 32 -46 8 -3 14 -19 14 -35 0 -38 69 -108 107
-108 17 0 23 -4 20 -14 -5 -14 10 -36 25 -36 20 0 5 41 -21 56 -17 10 -32 28
-36 41 -3 13 -10 23 -15 23 -6 0 -10 6 -10 14 0 7 -7 19 -15 26 -9 7 -23 28
-31 47 -13 25 -21 32 -35 28 -21 -7 -25 5 -9 21 12 12 -15 73 -35 81 -8 2 -12
10 -9 18 3 7 -2 19 -10 28 -9 9 -16 20 -16 26 0 6 -4 11 -10 11 -5 0 -7 -22
-3 -52z"/>
<path d="M800 2390 c0 -5 5 -10 11 -10 5 0 8 -4 5 -9 -8 -12 49 -59 80 -67 13
-3 31 -3 40 0 9 4 22 2 29 -4 15 -12 54 0 73 23 19 22 3 26 -55 14 -49 -10
-54 -9 -73 11 -12 12 -28 22 -36 22 -9 0 -22 7 -30 15 -17 17 -44 20 -44 5z"/>
<path d="M1295 2378 c-23 -27 -65 -108 -65 -125 0 -7 -5 -13 -11 -13 -6 0 -8
-9 -4 -20 9 -28 -3 -44 -21 -29 -11 9 -15 7 -21 -7 -3 -11 -15 -32 -26 -48
-16 -23 -17 -30 -6 -37 8 -5 18 -9 22 -9 12 0 56 53 57 68 0 6 5 12 10 12 6 0
10 9 10 20 0 11 7 20 15 20 8 0 15 8 15 18 0 10 6 24 13 31 10 11 10 14 0 18
-18 7 -16 21 3 19 10 0 21 14 30 39 23 68 15 85 -21 43z"/>
<path d="M1911 2378 c-12 -30 -41 -196 -40 -228 1 -14 -2 -36 -6 -48 -7 -21
-5 -23 15 -20 21 3 24 9 27 57 2 30 -2 60 -8 68 -9 10 -8 13 4 13 11 0 19 22
30 82 8 46 13 86 11 90 -9 15 -24 8 -33 -14z"/>
<path d="M490 2297 c0 -14 35 -47 50 -47 6 0 9 -3 8 -7 -5 -23 16 -83 29 -83
8 0 17 -9 20 -20 3 -11 14 -20 24 -20 12 0 16 -5 13 -14 -6 -14 28 -56 45 -56
5 0 12 7 15 16 8 21 25 8 19 -15 -6 -22 0 -27 51 -36 34 -7 38 -6 34 11 -2 11
-12 19 -24 20 -30 2 -44 12 -44 35 0 12 -7 19 -20 19 -11 0 -20 6 -20 13 0 8
-4 7 -10 -3 -8 -13 -10 -12 -10 3 0 9 -4 17 -10 17 -5 0 -12 11 -16 25 -3 14
-22 37 -40 52 -20 14 -34 34 -34 47 0 11 -7 29 -14 39 -15 20 -66 23 -66 4z"/>
<path d="M330 2265 c0 -3 4 -13 9 -23 5 -9 17 -34 25 -54 9 -20 21 -40 27 -44
6 -3 14 -17 19 -30 5 -13 16 -24 24 -24 9 0 19 -15 24 -34 6 -20 29 -51 58
-77 26 -24 56 -52 66 -61 10 -10 33 -26 50 -36 18 -9 48 -32 65 -50 32 -33 62
-39 71 -14 2 7 -5 12 -17 12 -12 0 -21 4 -21 9 0 24 -130 127 -143 114 -9 -8
-122 145 -154 209 -13 26 -32 52 -43 58 -10 5 -22 19 -25 30 -5 17 -35 30 -35
15z"/>
<path d="M800 2220 c0 -11 5 -20 10 -20 6 0 15 -11 20 -25 5 -14 17 -25 25
-25 9 0 23 -7 31 -15 9 -9 33 -15 57 -15 78 0 90 35 16 46 -22 4 -42 11 -45
15 -3 5 -14 9 -25 9 -10 0 -19 5 -19 11 0 6 -7 8 -17 5 -10 -4 -14 -4 -10 0 9
9 -12 34 -29 34 -8 0 -14 -9 -14 -20z"/>
<path d="M2560 2159 c-7 -11 -9 -31 -6 -44 3 -13 2 -27 -4 -30 -15 -9 -12 -25
5 -25 11 0 14 -7 9 -25 -4 -15 -2 -25 5 -25 14 0 35 41 25 49 -5 3 -10 11 -10
16 -1 6 -5 27 -8 48 -4 23 -3 37 4 37 5 0 10 5 10 10 0 18 -19 11 -30 -11z"/>
<path d="M740 2145 c-15 -18 -18 -14 46 -58 56 -37 154 -57 154 -31 0 18 -21
29 -47 25 -16 -2 -23 3 -23 14 0 11 -5 15 -15 12 -8 -4 -17 -2 -21 4 -3 5 -13
7 -23 4 -10 -3 -20 3 -26 17 -13 28 -29 33 -45 13z"/>
<path d="M1064 2121 c-20 -21 -41 -31 -68 -33 -28 -2 -40 -8 -42 -20 -3 -25
31 -32 68 -14 17 9 37 16 44 16 19 0 54 40 54 62 0 27 -24 22 -56 -11z"/>
<path d="M1722 2100 c-6 -17 -8 -38 -5 -46 3 -9 1 -19 -4 -23 -6 -3 -20 -42
-31 -86 -11 -44 -27 -93 -36 -110 -9 -16 -16 -39 -16 -50 0 -11 -11 -38 -25
-60 -13 -22 -25 -49 -25 -60 0 -11 -10 -36 -22 -55 -26 -42 -48 -97 -40 -105
8 -8 42 26 42 42 0 7 4 13 9 13 15 0 22 33 9 42 -10 6 -9 8 3 8 18 0 33 26 23
41 -3 5 9 29 26 54 35 51 64 136 61 177 -1 14 2 29 8 33 6 3 11 19 11 34 0 15
5 32 10 37 15 15 32 126 21 137 -5 5 -13 -5 -19 -23z"/>
<path d="M1120 2069 c0 -18 -25 -36 -61 -44 -19 -4 -41 -13 -49 -20 -27 -23
-42 -22 -117 10 -24 11 -33 11 -36 2 -3 -9 -8 -9 -19 1 -12 9 -18 10 -23 2
-12 -20 4 -39 32 -40 63 0 73 -2 73 -12 0 -6 9 -8 20 -5 11 3 33 0 49 -6 35
-13 85 5 108 40 8 12 21 23 29 23 8 0 11 6 8 15 -4 8 -1 15 5 15 6 0 11 7 11
15 0 8 -7 15 -15 15 -8 0 -15 -5 -15 -11z"/>
<path d="M1874 2060 c-21 -8 -39 -56 -48 -130 -5 -46 -17 -92 -26 -105 -4 -5
-11 -26 -15 -45 -4 -19 -14 -48 -23 -65 -8 -16 -19 -38 -24 -48 -12 -25 -6
-30 25 -18 27 11 51 69 40 98 -3 8 -2 18 3 22 14 10 45 81 39 91 -3 4 2 11 11
14 13 5 14 9 4 21 -10 13 -10 19 4 34 11 13 14 21 7 26 -16 10 -13 38 3 32 10
-4 15 6 18 36 3 23 4 43 4 43 -1 1 -10 -2 -22 -6z"/>
<path d="M407 2023 c-3 -3 -3 -11 0 -19 7 -18 33 -18 33 0 0 14 -24 29 -33 19z"/>
<path d="M1160 1996 c0 -8 -16 -23 -36 -32 -20 -9 -40 -28 -45 -41 -12 -32
-12 -33 10 -33 25 0 47 26 29 34 -7 3 -2 3 12 0 32 -6 63 24 58 57 -3 25 -28
39 -28 15z"/>
<path d="M684 1966 c3 -31 40 -81 54 -72 11 6 5 23 -28 74 -19 29 -29 28 -26
-2z"/>
<path d="M1752 1968 c-7 -13 -14 -52 -17 -88 -3 -36 -9 -66 -15 -68 -5 -2 -10
-11 -10 -21 0 -9 -9 -35 -20 -56 -12 -22 -23 -59 -27 -82 -5 -36 -3 -43 11
-43 10 0 16 8 16 24 0 14 4 27 9 30 5 3 12 21 15 40 4 19 13 39 21 46 18 15
20 40 3 40 -7 0 -6 5 3 13 19 15 44 91 35 106 -4 6 -2 11 4 11 6 0 8 5 4 11
-3 6 -1 15 7 19 10 7 10 11 0 24 -18 21 -25 20 -39 -6z"/>
<path d="M2527 1983 c-3 -5 -8 -28 -12 -53 -4 -24 -14 -55 -22 -67 -9 -13 -13
-32 -10 -43 3 -13 1 -18 -5 -13 -8 4 -9 -4 -5 -26 5 -24 3 -33 -9 -38 -8 -3
-13 -12 -10 -19 3 -7 -6 -27 -20 -44 -15 -17 -24 -37 -21 -44 3 -8 0 -19 -7
-25 -8 -7 -16 -24 -19 -39 -3 -15 -15 -38 -26 -51 -12 -13 -21 -30 -21 -37 0
-7 -4 -14 -8 -16 -10 -4 -52 -76 -52 -89 0 -5 9 -9 20 -9 11 0 20 5 20 10 0 6
11 15 25 20 14 5 27 21 31 36 4 14 17 47 30 72 13 26 19 49 14 50 -13 5 -13
32 0 32 6 0 10 -4 10 -10 0 -23 22 -7 36 27 12 28 13 42 5 60 -13 28 -14 44
-2 24 14 -22 53 17 40 41 -7 14 -6 18 6 18 8 0 15 8 15 19 0 10 6 31 14 47 9
15 12 40 9 56 -3 15 -1 34 4 40 5 7 10 28 11 46 2 26 -1 32 -17 32 -11 0 -22
-3 -24 -7z m-67 -330 c0 -5 -4 -15 -10 -23 -11 -18 -25 -7 -17 15 6 15 27 21
27 8z"/>
<path d="M752 1968 c2 -6 11 -15 19 -18 8 -4 28 -15 46 -24 33 -17 63 -21 63
-8 -1 4 -20 19 -44 35 -45 28 -91 36 -84 15z"/>
<path d="M452 1953 c2 -10 13 -19 25 -21 12 -2 24 -11 26 -20 4 -13 5 -12 6 4
1 22 -27 54 -48 54 -7 0 -11 -8 -9 -17z"/>
<path d="M2134 1938 c-4 -13 -9 -27 -10 -33 -2 -5 -8 -29 -15 -52 -9 -33 -8
-44 2 -56 12 -12 16 -10 27 16 18 43 28 147 14 147 -6 0 -14 -10 -18 -22z"/>
<path d="M756 1931 c-9 -14 12 -43 25 -35 5 3 9 -3 9 -13 0 -14 16 -22 71 -35
47 -11 77 -14 89 -8 9 5 21 5 26 1 16 -14 99 -31 102 -21 2 6 8 10 13 10 4 0
6 -7 3 -15 -4 -8 -1 -15 6 -15 6 0 14 9 17 20 5 20 23 28 23 11 0 -5 15 -2 33
6 28 13 32 20 33 54 2 43 -8 43 -31 -2 -12 -22 -23 -29 -45 -29 -16 0 -32 -5
-35 -10 -4 -6 -11 -7 -18 -3 -6 3 -46 7 -89 8 -44 1 -84 7 -90 13 -7 7 -23 12
-36 12 -30 0 -63 17 -83 43 -11 14 -18 16 -23 8z"/>
<path d="M900 1926 c0 -13 32 -35 53 -36 9 0 17 5 17 10 0 6 11 10 25 10 14 0
25 -4 25 -10 0 -5 9 -10 20 -10 22 0 28 28 8 35 -27 9 -148 10 -148 1z"/>
<path d="M540 1882 c0 -10 33 -42 44 -42 4 0 6 10 4 23 -2 14 -11 23 -25 25
-13 2 -23 -1 -23 -6z"/>
<path d="M1890 1831 c0 -49 -3 -59 -17 -57 -12 1 -20 -11 -27 -41 -6 -23 -14
-45 -18 -49 -5 -4 -8 -24 -8 -45 0 -44 -16 -93 -28 -85 -5 3 -14 -5 -20 -17
-16 -33 -22 -57 -15 -57 10 0 51 49 45 54 -3 3 2 6 11 6 12 0 17 8 17 27 0 15
11 43 25 63 14 20 31 63 37 96 7 32 15 61 18 64 5 4 6 53 2 88 -1 6 -6 12 -12
12 -6 0 -10 -26 -10 -59z"/>
<path d="M480 1850 c0 -5 6 -10 14 -10 8 0 17 -7 20 -16 3 -8 11 -12 17 -8 8
5 4 13 -12 25 -27 21 -39 24 -39 9z"/>
<path d="M557 1824 c-12 -12 -8 -24 7 -24 8 0 16 -5 18 -12 2 -6 14 -12 25
-13 12 0 28 -7 37 -14 14 -11 16 -11 16 3 0 9 -6 16 -13 16 -7 0 -18 9 -25 21
-9 13 -20 19 -32 16 -11 -3 -20 -1 -22 5 -2 5 -7 6 -11 2z"/>
<path d="M1975 1814 c9 -9 18 -14 21 -11 9 9 -6 27 -22 27 -13 0 -13 -2 1 -16z"/>
<path d="M830 1812 c0 -15 58 -33 66 -21 8 13 5 15 -33 24 -20 4 -33 3 -33 -3z"/>
<path d="M927 1803 c-13 -12 -7 -23 13 -23 11 0 20 -4 20 -10 0 -5 11 -10 25
-10 18 0 25 5 25 19 0 14 -6 17 -25 13 -14 -2 -31 1 -38 7 -8 6 -17 8 -20 4z"/>
<path d="M713 1761 c3 -23 14 -39 40 -58 21 -15 39 -24 42 -22 8 8 -7 49 -18
49 -6 0 -23 14 -39 32 l-28 32 3 -33z"/>
<path d="M1936 1763 c-3 -16 -9 -39 -12 -53 -7 -22 -6 -24 9 -11 9 7 17 10 17
5 0 -5 4 -3 8 3 10 15 3 83 -8 83 -4 0 -10 -12 -14 -27z"/>
<path d="M1270 1760 c-6 -12 -9 -25 -5 -28 9 -9 40 13 40 28 0 23 -23 22 -35
0z"/>
<path d="M867 1753 c-16 -15 27 -43 65 -43 50 0 46 17 -7 36 -46 16 -49 16
-58 7z"/>
<path d="M542 1733 c2 -13 14 -19 41 -21 38 -3 47 7 24 27 -10 8 -17 7 -25 -1
-9 -9 -12 -9 -12 0 0 7 -7 12 -16 12 -9 0 -14 -7 -12 -17z"/>
<path d="M1464 1737 c-3 -9 -3 -25 1 -34 6 -16 8 -16 18 5 7 16 7 26 -1 34 -8
8 -13 7 -18 -5z"/>
<path d="M2080 1741 c0 -5 -3 -16 -6 -25 -4 -11 -1 -16 10 -16 18 0 22 35 6
45 -5 3 -10 2 -10 -4z"/>
<path d="M807 1700 c3 -13 14 -20 29 -20 31 0 31 14 -1 28 -34 16 -34 15 -28
-8z"/>
<path d="M1000 1706 c0 -16 27 -29 41 -20 19 11 9 34 -16 34 -15 0 -25 -6 -25
-14z"/>
<path d="M1064 1705 c3 -9 6 -19 6 -21 0 -2 7 -4 16 -4 22 0 13 34 -10 38 -14
3 -17 0 -12 -13z"/>
<path d="M1195 1699 c-4 -6 -3 -15 3 -21 6 -6 11 -4 15 6 7 18 -9 31 -18 15z"/>
<path d="M1415 1680 c-8 -16 -15 -38 -15 -48 0 -11 -7 -25 -15 -32 -18 -15
-20 -53 -3 -48 7 3 15 15 18 27 3 12 10 21 15 19 6 -2 11 9 13 23 2 17 11 29
23 32 19 5 27 27 9 27 -5 0 -10 7 -10 15 0 25 -18 17 -35 -15z"/>
<path d="M2543 1695 c-9 -25 4 -29 17 -6 7 15 7 21 0 21 -6 0 -13 -7 -17 -15z"/>
<path d="M670 1681 c0 -12 4 -21 9 -21 5 0 16 -3 25 -6 12 -4 16 0 16 15 0 12
-4 21 -9 21 -5 0 -16 3 -25 6 -12 4 -16 0 -16 -15z"/>
<path d="M912 1673 c4 -19 89 -46 102 -33 6 6 4 11 -5 14 -93 33 -100 34 -97
19z"/>
<path d="M1940 1678 c0 -6 -3 -8 -7 -5 -6 7 -32 -21 -33 -35 0 -15 27 -8 43
10 19 21 22 42 7 42 -5 0 -10 -5 -10 -12z"/>
<path d="M2010 1671 c0 -12 -7 -21 -15 -21 -15 0 -20 -12 -9 -23 8 -8 44 25
44 40 0 6 -4 15 -10 18 -5 3 -10 -3 -10 -14z"/>
<path d="M2080 1665 c0 -8 5 -15 10 -15 6 0 10 7 10 15 0 8 -4 15 -10 15 -5 0
-10 -7 -10 -15z"/>
<path d="M588 1662 c-25 -5 -22 -16 8 -32 22 -12 27 -12 34 0 7 10 10 11 10 3
0 -7 7 -13 15 -13 21 0 19 19 -2 26 -10 3 -25 9 -33 13 -8 4 -23 5 -32 3z"/>
<path d="M780 1646 c0 -14 59 -48 71 -40 5 3 9 0 9 -5 0 -14 47 -14 55 -1 7
11 -26 27 -92 45 -31 9 -43 9 -43 1z"/>
<path d="M1107 1653 c-12 -11 -8 -23 7 -23 8 0 16 7 20 15 5 15 -14 21 -27 8z"/>
<path d="M2254 1634 c4 -9 1 -23 -5 -30 -8 -10 -8 -14 0 -14 6 0 11 -5 11 -11
0 -7 -11 -8 -30 -4 -28 6 -30 5 -21 -17 4 -13 6 -29 4 -35 -3 -7 1 -13 8 -13
7 0 9 3 6 7 -4 3 2 16 13 28 28 30 60 94 50 100 -5 3 -11 -1 -13 -7 -4 -10 -6
-10 -6 0 -1 6 -6 12 -12 12 -6 0 -8 -7 -5 -16z"/>
<path d="M1725 1619 c-4 -6 -5 -13 -2 -16 7 -7 27 6 27 18 0 12 -17 12 -25 -2z"/>
<path d="M2060 1615 c0 -9 -7 -18 -15 -21 -8 -3 -19 -21 -25 -39 -6 -18 -20
-43 -30 -56 -11 -12 -20 -31 -19 -43 0 -12 3 -15 6 -8 2 6 9 12 14 12 6 0 8
-4 4 -9 -3 -5 -1 -12 4 -15 5 -3 16 11 25 32 8 20 23 50 33 65 15 22 15 29 5
36 -11 7 -11 9 2 14 17 7 22 47 6 47 -5 0 -10 -7 -10 -15z"/>
<path d="M2502 1605 c-7 -14 -12 -31 -12 -38 0 -7 -9 -18 -20 -25 -11 -7 -20
-17 -20 -22 0 -6 -16 -33 -35 -61 -41 -60 -43 -69 -12 -61 33 8 67 32 67 48 0
8 8 22 18 32 21 21 56 127 47 142 -10 17 -21 12 -33 -15z"/>
<path d="M540 1610 c0 -6 7 -13 15 -16 8 -4 15 -12 15 -19 0 -18 53 -41 94
-40 20 1 36 4 36 8 0 4 0 12 0 19 0 9 -3 9 -11 1 -9 -9 -24 -6 -59 12 -26 13
-50 21 -54 18 -3 -3 -8 2 -12 11 -7 18 -24 22 -24 6z"/>
<path d="M956 1606 c8 -22 84 -38 100 -21 18 17 9 24 -25 19 -15 -3 -40 0 -54
5 -21 8 -25 7 -21 -3z"/>
<path d="M1131 1606 c-18 -10 -20 -14 -9 -24 17 -14 58 -5 58 13 0 19 -23 24
-49 11z"/>
<path d="M1888 1608 c-9 -7 -25 -39 -36 -70 -19 -54 -19 -58 -3 -58 25 0 33
11 20 26 -8 10 -3 23 20 51 42 50 41 84 -1 51z"/>
<path d="M2144 1604 c3 -9 6 -20 6 -25 0 -5 5 -9 10 -9 6 0 10 11 10 25 0 16
-6 25 -16 25 -11 0 -14 -5 -10 -16z"/>
<path d="M742 1588 c6 -16 36 -34 44 -25 9 9 -15 37 -33 37 -8 0 -13 -5 -11
-12z"/>
<path d="M1458 1593 c-10 -2 -21 -15 -24 -29 -3 -13 -12 -24 -20 -24 -7 0 -20
-13 -29 -30 -10 -20 -23 -30 -38 -30 -12 0 -31 -10 -41 -22 l-18 -21 38 6 c22
4 44 7 51 7 6 0 14 13 18 29 4 20 11 28 20 25 20 -8 65 41 65 71 0 14 -1 24
-2 24 -2 -1 -11 -3 -20 -6z"/>
<path d="M1626 1593 c-9 -9 -7 -33 3 -33 12 0 22 28 12 34 -5 3 -11 3 -15 -1z"/>
<path d="M1950 1576 c0 -14 -9 -35 -20 -46 -23 -23 -26 -50 -5 -50 16 0 44 37
49 66 2 11 6 25 8 33 1 8 -5 17 -14 19 -14 3 -18 -3 -18 -22z"/>
<path d="M1238 1578 c-3 -7 -15 -13 -29 -13 -14 0 -23 -5 -21 -12 1 -7 -3 -13
-9 -13 -5 0 -7 -4 -4 -10 7 -11 112 25 135 46 12 12 9 14 -27 14 -24 0 -43 -5
-45 -12z"/>
<path d="M840 1565 c0 -8 5 -15 10 -15 6 0 10 7 10 15 0 8 -4 15 -10 15 -5 0
-10 -7 -10 -15z"/>
<path d="M1719 1568 c-1 -7 0 -19 1 -27 1 -8 -4 -12 -13 -8 -10 4 -20 -5 -31
-27 -8 -18 -35 -54 -60 -80 -35 -38 -49 -46 -65 -41 -24 7 -25 6 -11 -31 10
-25 12 -26 29 -10 9 9 20 14 23 10 9 -9 76 65 82 91 3 13 17 35 31 49 14 14
25 32 25 41 0 8 5 15 10 15 6 0 10 7 10 15 0 18 -29 20 -31 3z"/>
<path d="M2111 1556 c-7 -8 -15 -31 -18 -51 -3 -20 -12 -39 -19 -42 -8 -3 -14
-14 -14 -24 0 -10 -6 -18 -12 -16 -7 1 -14 -9 -16 -22 -3 -19 0 -22 13 -17 9
3 19 6 21 6 2 0 4 7 4 15 0 8 5 15 10 15 6 0 10 6 10 13 0 23 29 75 45 81 19
7 19 30 1 45 -10 8 -16 8 -25 -3z"/>
<path d="M719 1553 c-1 -7 -2 -18 -3 -24 -1 -15 96 -50 144 -53 19 -1 47 -10
62 -20 22 -14 31 -15 49 -6 20 11 20 13 6 22 -10 5 -22 6 -27 3 -6 -3 -10 -2
-10 4 0 5 -21 13 -47 17 -27 4 -51 11 -54 16 -3 5 -26 12 -50 15 -24 4 -49 13
-56 22 -9 11 -13 12 -14 4z"/>
<path d="M902 1543 c3 -16 51 -36 62 -25 10 9 -15 31 -30 25 -8 -3 -14 0 -14
6 0 6 -5 11 -11 11 -6 0 -9 -8 -7 -17z"/>
<path d="M1575 1494 c-54 -60 -63 -74 -45 -74 7 0 14 9 17 21 3 12 11 18 20
15 16 -7 56 31 48 44 -4 6 0 13 9 16 19 7 29 34 13 34 -7 0 -34 -25 -62 -56z"/>
<path d="M1003 1527 c2 -6 10 -12 18 -13 34 -8 116 -41 141 -57 44 -30 118 -4
102 37 -3 9 -10 13 -16 10 -5 -3 -7 -12 -4 -20 7 -17 -30 -10 -84 16 -63 31
-164 48 -157 27z"/>
<path d="M570 1511 c0 -21 13 -41 26 -41 17 0 17 5 4 31 -11 20 -30 26 -30 10z"/>
<path d="M630 1495 c0 -8 2 -15 4 -15 2 0 11 -3 20 -6 23 -9 20 13 -4 26 -16
9 -20 8 -20 -5z"/>
<path d="M1475 1488 c-12 -13 -34 -33 -50 -45 -36 -26 -31 -34 15 -24 36 7 65
45 58 77 -2 13 -7 11 -23 -8z"/>
<path d="M2173 1488 c4 -12 0 -18 -15 -20 -30 -4 -62 -50 -53 -77 7 -24 35
-29 35 -6 0 8 9 19 19 25 24 13 38 68 21 83 -10 9 -12 8 -7 -5z"/>
<path d="M680 1467 c0 -7 6 -21 13 -31 13 -18 14 -18 20 -2 4 10 1 24 -7 32
-18 17 -26 18 -26 1z"/>
<path d="M732 1463 c2 -10 13 -19 26 -21 26 -4 28 6 5 24 -25 18 -35 17 -31
-3z"/>
<path d="M1814 1460 c-27 -11 -37 -45 -18 -61 12 -10 18 -8 29 7 8 10 15 22
15 26 0 3 3 13 6 22 7 18 0 19 -32 6z"/>
<path d="M1000 1451 c0 -12 88 -44 105 -37 20 7 19 32 -1 40 -25 10 -30 -2 -8
-19 28 -21 4 -18 -34 5 -34 21 -62 26 -62 11z"/>
<path d="M1743 1448 c-4 -7 -17 -18 -28 -24 -20 -11 -65 -70 -65 -85 0 -5 10
-9 23 -9 30 0 83 56 92 98 7 32 -6 44 -22 20z"/>
<path d="M1866 1420 c-31 -47 -33 -60 -7 -60 12 0 23 9 27 22 4 13 14 28 22
34 15 11 11 44 -6 44 -5 0 -21 -18 -36 -40z"/>
<path d="M2490 1431 c-13 -26 -13 -31 5 -31 9 0 15 9 15 25 0 30 -6 32 -20 6z"/>
<path d="M1930 1400 c-6 -11 -8 -25 -4 -31 5 -8 34 32 34 47 0 12 -21 1 -30
-16z"/>
<path d="M628 1405 c-8 -9 3 -45 13 -45 5 0 9 6 9 13 0 17 -15 39 -22 32z"/>
<path d="M944 1387 c7 -11 19 -17 33 -14 12 2 24 0 25 -5 6 -16 219 -13 229 3
14 22 10 32 -8 24 -36 -15 -63 -17 -63 -6 0 7 -4 9 -10 6 -15 -9 -146 -8 -162
1 -7 5 -23 9 -34 9 -18 1 -20 -2 -10 -18z"/>
<path d="M1314 1403 c-31 -3 -43 -9 -47 -24 -3 -10 -1 -19 4 -19 5 0 9 4 9 10
0 5 13 7 28 4 19 -4 32 -1 41 10 7 9 17 13 22 10 5 -3 9 0 9 5 0 6 -6 10 -12
9 -7 -1 -32 -3 -54 -5z"/>
<path d="M1450 1379 c-61 -41 -71 -64 -15 -35 15 8 33 12 41 9 12 -4 32 42 22
52 -2 2 -24 -10 -48 -26z"/>
<path d="M697 1373 c-10 -3 -17 -12 -15 -21 7 -32 128 -10 128 24 0 3 -6 1
-13 -5 -9 -7 -24 -8 -48 -1 -18 6 -34 9 -34 9 0 -1 -8 -3 -18 -6z"/>
<path d="M827 1333 c-15 -14 -5 -20 31 -17 49 3 49 3 32 14 -17 11 -54 13 -63
3z"/>
<path d="M910 1326 c0 -21 34 -38 47 -25 8 8 13 8 17 0 7 -11 36 -4 36 9 0 4
-15 10 -32 12 -18 3 -41 8 -50 13 -13 5 -18 3 -18 -9z"/>
<path d="M1350 1330 c0 -5 10 -10 23 -10 18 0 19 2 7 10 -19 13 -30 13 -30 0z"/>
<path d="M2440 1325 c0 -9 6 -12 15 -9 8 4 15 10 15 15 0 5 -7 9 -15 9 -8 0
-15 -7 -15 -15z"/>
<path d="M1258 1323 c-10 -2 -18 -13 -18 -24 0 -20 15 -26 25 -9 3 6 15 10 26
10 23 0 25 15 3 24 -9 3 -16 5 -17 5 -1 -1 -10 -3 -19 -6z"/>
<path d="M1155 1307 c-9 -5 -37 -6 -62 -2 -43 6 -62 -2 -63 -27 0 -9 122 -4
137 5 7 4 22 3 33 -3 11 -6 20 -9 21 -8 9 32 3 45 -22 45 -15 0 -35 -5 -44
-10z"/>
<path d="M2318 1309 c-23 -13 -23 -39 0 -39 21 0 42 18 42 37 0 15 -18 16 -42
2z"/>
<path d="M1875 1288 c-4 -14 -8 -18 -12 -10 -7 18 -23 15 -48 -10 -13 -13 -44
-39 -69 -58 -50 -38 -56 -50 -26 -50 11 0 20 5 20 10 0 6 11 15 24 20 13 5 27
18 31 29 4 12 12 18 20 14 19 -7 105 44 105 62 0 24 -37 17 -45 -7z"/>
<path d="M1972 1298 c6 -18 28 -21 28 -4 0 9 -7 16 -16 16 -9 0 -14 -5 -12
-12z"/>
<path d="M2053 1295 c-3 -9 -3 -19 1 -22 8 -9 37 18 30 28 -8 14 -24 11 -31
-6z"/>
<path d="M2395 1299 c-4 -6 -5 -13 -2 -16 7 -7 27 6 27 18 0 12 -17 12 -25 -2z"/>
<path d="M1770 1290 c0 -5 7 -10 15 -10 8 0 15 5 15 10 0 6 -7 10 -15 10 -8 0
-15 -4 -15 -10z"/>
<path d="M2245 1287 c-16 -7 -32 -14 -35 -18 -8 -9 -44 -22 -56 -20 -15 2 -26
-41 -14 -53 7 -7 10 -2 10 12 0 19 4 21 32 15 26 -5 30 -3 25 9 -4 12 -1 14
13 11 12 -3 28 5 45 22 36 40 34 42 -20 22z"/>
<path d="M745 1271 c-11 -5 -26 -6 -32 -4 -7 3 -13 -2 -13 -11 0 -9 8 -16 19
-16 10 0 46 -3 80 -6 70 -8 80 4 23 29 -43 19 -48 19 -77 8z"/>
<path d="M1720 1266 c0 -9 -7 -16 -15 -16 -15 0 -64 -47 -65 -62 0 -18 28 -5
69 30 39 34 42 39 27 51 -14 11 -16 11 -16 -3z"/>
<path d="M1938 1255 c-6 -14 -15 -25 -19 -25 -4 0 -23 -16 -43 -36 -19 -19
-40 -33 -46 -29 -14 8 -40 -13 -40 -32 0 -11 4 -12 23 -1 12 7 25 11 29 10 4
-1 19 3 33 8 18 7 25 17 25 36 0 23 3 25 25 20 18 -5 27 -1 35 14 6 11 8 20 4
20 -3 0 -1 6 5 13 11 14 5 27 -11 27 -5 0 -14 -11 -20 -25z"/>
<path d="M2350 1245 c0 -16 16 -20 24 -6 3 5 -1 11 -9 15 -9 3 -15 0 -15 -9z"/>
<path d="M1377 1243 c-14 -13 -6 -24 15 -21 27 4 36 28 11 28 -11 0 -23 -3
-26 -7z"/>
<path d="M1500 1235 c-7 -8 -27 -15 -46 -15 -30 0 -54 -20 -54 -44 0 -13 37
-5 56 12 10 9 29 16 40 14 13 -2 24 4 28 14 9 24 -8 38 -24 19z"/>
<path d="M1559 1234 c-11 -14 -10 -15 11 -12 13 1 25 9 28 16 5 17 -23 15 -39
-4z"/>
<path d="M2310 1230 c0 -5 7 -10 15 -10 8 0 15 5 15 10 0 6 -7 10 -15 10 -8 0
-15 -4 -15 -10z"/>
<path d="M945 1220 c-3 -5 3 -10 15 -10 12 0 18 5 15 10 -3 6 -10 10 -15 10
-5 0 -12 -4 -15 -10z"/>
<path d="M2084 1206 c-9 -19 -9 -26 1 -29 21 -9 38 9 30 32 -8 27 -17 27 -31
-3z"/>
<path d="M2253 1210 c-8 -11 -9 -21 -3 -25 8 -5 30 24 30 39 0 13 -16 5 -27
-14z"/>
<path d="M1277 1208 c-6 -4 -9 -10 -5 -13 8 -9 78 5 78 16 0 9 -56 7 -73 -3z"/>
<path d="M1027 1203 c-21 -20 17 -27 81 -14 2 1 1 5 -3 11 -4 6 -15 6 -30 0
-16 -6 -25 -6 -25 0 0 11 -13 13 -23 3z"/>
<path d="M1217 1204 c-14 -15 -6 -34 14 -34 14 0 19 5 17 17 -3 18 -20 27 -31
17z"/>
<path d="M1567 1170 c-9 -11 -24 -20 -32 -20 -8 0 -15 -4 -15 -10 0 -21 65 -2
82 24 21 31 -9 36 -35 6z"/>
<path d="M2035 1179 c-4 -6 -5 -13 -2 -16 7 -7 27 6 27 18 0 12 -17 12 -25 -2z"/>
<path d="M2200 1175 c-7 -8 -18 -15 -24 -15 -6 0 -22 -9 -35 -19 -21 -16 -22
-19 -6 -25 12 -4 26 1 40 14 12 11 29 20 38 20 9 0 17 6 17 14 0 22 -16 28
-30 11z"/>
<path d="M753 1167 c2 -6 10 -12 18 -13 7 -2 24 -6 37 -10 24 -7 30 7 10 24
-17 13 -70 13 -65 -1z"/>
<path d="M844 1164 c3 -9 6 -17 6 -20 0 -2 6 -1 14 2 8 3 17 1 21 -5 8 -14 52
-14 60 -1 5 8 11 7 21 -1 16 -13 30 -6 20 10 -4 6 -25 8 -51 4 -32 -4 -45 -2
-45 6 0 7 -4 10 -9 6 -5 -3 -12 -1 -16 5 -10 16 -28 11 -21 -6z"/>
<path d="M1757 1154 c-4 -4 -7 -18 -7 -31 0 -28 23 -27 28 1 4 20 -11 40 -21
30z"/>
<path d="M1996 1145 c4 -8 10 -12 15 -9 14 8 10 24 -6 24 -9 0 -12 -6 -9 -15z"/>
<path d="M1350 1142 c0 -15 24 -32 47 -32 33 0 28 16 -8 29 -38 13 -39 13 -39
3z"/>
<path d="M2298 1127 c-26 -21 -37 -47 -20 -47 12 1 48 34 55 53 9 23 -2 21
-35 -6z"/>
<path d="M1000 1134 c0 -11 46 -49 63 -52 23 -4 21 5 -8 33 -22 23 -55 34 -55
19z"/>
<path d="M1292 1128 c-19 -19 -15 -25 18 -25 23 0 30 5 28 16 -4 20 -30 25
-46 9z"/>
<path d="M1944 1124 c3 -9 6 -18 6 -20 0 -2 5 -4 10 -4 6 0 10 9 10 20 0 12
-7 20 -16 20 -11 0 -14 -5 -10 -16z"/>
<path d="M1258 1125 c-3 -3 -24 -6 -47 -7 -29 0 -41 -5 -41 -15 0 -12 9 -14
48 -8 53 8 56 9 50 25 -2 6 -6 8 -10 5z"/>
<path d="M2083 1115 c-3 -9 -3 -18 0 -21 9 -9 27 6 27 22 0 19 -19 18 -27 -1z"/>
<path d="M2394 1123 c-34 -4 -80 -45 -70 -62 9 -13 106 38 106 55 0 8 -1 13
-2 12 -2 0 -17 -3 -34 -5z"/>
<path d="M1710 1099 c0 -24 23 -21 28 4 2 10 -3 17 -12 17 -10 0 -16 -9 -16
-21z"/>
<path d="M1903 1096 c-39 -41 -23 -66 17 -26 11 11 17 26 14 35 -7 18 -5 19
-31 -9z"/>
<path d="M730 1098 c0 -10 12 -15 35 -16 19 -1 35 3 35 8 0 6 -6 10 -12 10 -7
0 -23 3 -35 6 -16 5 -23 2 -23 -8z"/>
<path d="M1654 1096 c-18 -14 -18 -15 0 -22 11 -4 21 -2 27 7 19 31 5 38 -27
15z"/>
<path d="M2023 1103 c-7 -2 -13 -13 -13 -24 0 -25 31 -25 47 0 17 27 0 38 -34
24z"/>
<path d="M810 1074 c0 -8 5 -12 10 -9 6 3 10 3 10 -2 0 -4 25 -9 55 -11 30 -2
55 1 55 5 -1 23 -20 32 -73 32 -44 0 -57 -4 -57 -15z"/>
<path d="M1836 1062 c-4 -13 -5 -26 -2 -29 10 -11 18 4 14 29 l-4 23 -8 -23z"/>
<path d="M2183 1055 c-8 -23 4 -30 21 -12 8 8 12 17 9 21 -11 11 -23 7 -30 -9z"/>
<path d="M1403 1048 c2 -7 10 -12 16 -10 6 1 11 -2 11 -8 0 -5 -9 -10 -21 -10
-11 0 -17 -4 -14 -10 8 -13 72 -13 80 0 3 5 -9 19 -27 30 -38 23 -52 25 -45 8z"/>
<path d="M1533 1053 c-25 -5 -32 -23 -9 -23 22 0 46 11 46 21 0 5 -3 8 -7 8
-5 -1 -18 -4 -30 -6z"/>
<path d="M2430 1043 c0 -9 3 -13 7 -10 3 4 12 2 20 -4 10 -9 13 -8 13 4 0 8
-7 18 -16 21 -22 9 -24 8 -24 -11z"/>
<path d="M1283 1029 c-34 -22 -37 -47 -3 -29 24 13 53 13 45 0 -3 -5 1 -10 9
-10 19 0 20 19 2 43 -16 21 -14 21 -53 -4z"/>
<path d="M1740 1041 c0 -35 32 -56 43 -27 3 8 -5 18 -19 25 -13 6 -24 7 -24 2z"/>
<path d="M2075 1041 c-3 -5 -1 -12 5 -16 12 -7 30 2 30 16 0 12 -27 12 -35 0z"/>
<path d="M2384 1037 c-3 -9 -14 -17 -23 -17 -21 0 -41 -19 -41 -38 0 -10 4
-12 13 -4 6 5 23 12 36 14 31 4 50 33 34 49 -10 10 -14 9 -19 -4z"/>
<path d="M2261 1018 c-5 -14 -17 -28 -26 -32 -9 -3 -13 -2 -10 4 3 6 1 10 -4
10 -6 0 -11 -9 -11 -21 0 -15 4 -19 16 -15 9 3 21 6 27 6 17 0 39 52 27 64 -6
6 -13 0 -19 -16z"/>
<path d="M1091 1017 c-1 -14 -7 -16 -27 -11 -26 7 -74 -12 -74 -28 0 -10 109
-8 114 1 2 3 0 17 -5 31 -4 17 -7 19 -8 7z"/>
<path d="M1167 1016 c-4 -9 -14 -12 -26 -9 -15 4 -21 1 -21 -10 0 -12 9 -15
38 -12 20 1 47 3 60 4 20 1 21 4 12 21 -12 23 -55 27 -63 6z"/>
<path d="M1695 1020 c-3 -5 -14 -10 -25 -10 -10 0 -20 -7 -24 -15 -7 -19 3
-19 43 1 17 8 29 20 26 25 -8 12 -12 11 -20 -1z"/>
<path d="M817 1013 c-14 -13 -7 -42 11 -41 9 0 40 -3 67 -7 51 -6 83 4 71 24
-4 6 -26 9 -49 7 -23 -2 -44 0 -47 4 -8 11 -46 21 -53 13z"/>
<path d="M740 1001 c-17 -5 -21 -9 -12 -15 6 -4 17 -4 22 -1 6 4 17 2 25 -5
10 -8 15 -8 20 1 4 6 1 15 -6 20 -16 10 -14 10 -49 0z"/>
<path d="M1607 993 c-10 -10 -8 -43 2 -43 9 0 21 24 21 41 0 11 -14 12 -23 2z"/>
<path d="M1508 969 c-2 -7 -22 -17 -43 -23 -58 -17 -58 -37 1 -31 52 5 61 10
66 39 3 21 -18 34 -24 15z"/>
<path d="M1830 964 c0 -9 7 -14 17 -12 25 5 28 28 4 28 -12 0 -21 -6 -21 -16z"/>
<path d="M2050 961 c0 -14 5 -18 20 -14 24 6 26 19 4 27 -23 9 -24 8 -24 -13z"/>
<path d="M2165 960 c5 -14 2 -20 -9 -20 -18 0 -22 -25 -5 -35 5 -4 19 1 29 10
15 14 17 21 8 41 -13 29 -32 32 -23 4z"/>
<path d="M1726 953 c-12 -12 -6 -21 19 -25 14 -3 25 -1 25 3 0 5 1 12 3 16 3
8 -39 14 -47 6z"/>
<path d="M1342 929 c-10 -15 -11 -24 -3 -32 17 -17 33 5 24 31 l-8 22 -13 -21z"/>
<path d="M1653 943 c-26 -10 -13 -33 18 -33 24 0 30 4 27 17 -3 18 -24 26 -45
16z"/>
<path d="M1940 940 c0 -5 7 -10 15 -10 8 0 15 5 15 10 0 6 -7 10 -15 10 -8 0
-15 -4 -15 -10z"/>
<path d="M2412 939 c2 -7 10 -15 17 -17 8 -3 12 1 9 9 -2 7 -10 15 -17 17 -8
3 -12 -1 -9 -9z"/>
<path d="M1270 929 c0 -7 -10 -9 -24 -5 -16 4 -30 0 -40 -9 -9 -9 -17 -11 -21
-5 -3 5 -23 9 -43 9 -20 0 -50 1 -66 3 -25 3 -30 -1 -37 -24 -9 -36 1 -41 50
-28 21 5 46 7 55 4 10 -4 18 0 22 10 5 12 10 14 19 6 10 -8 15 -8 20 0 5 8 10
8 20 0 9 -8 15 -8 20 0 3 5 19 10 36 10 31 0 36 9 17 28 -15 15 -28 15 -28 1z"/>
<path d="M2316 928 c-8 -5 -13 -15 -9 -24 5 -13 7 -13 23 1 16 15 18 14 23 -5
3 -11 11 -20 17 -20 7 0 10 7 6 16 -4 9 -2 22 4 29 7 9 2 12 -19 12 -16 0 -36
-4 -45 -9z"/>
<path d="M720 918 c0 -22 17 -41 29 -34 8 5 8 13 1 27 -12 21 -30 26 -30 7z"/>
<path d="M760 919 c0 -6 9 -13 20 -16 23 -6 26 -19 8 -26 -8 -4 -7 -6 3 -6 17
-1 29 18 29 45 0 9 -11 14 -30 14 -16 0 -30 -5 -30 -11z"/>
<path d="M876 903 c8 -34 10 -37 22 -29 14 8 2 56 -14 56 -11 0 -13 -7 -8 -27z"/>
<path d="M2087 909 c-3 -12 -10 -18 -15 -15 -5 3 -15 -1 -22 -9 -7 -8 -19 -15
-26 -15 -18 0 -18 -19 0 -26 16 -6 66 17 84 39 12 15 7 47 -8 47 -4 0 -10 -9
-13 -21z"/>
<path d="M1918 913 c-10 -3 -18 -9 -18 -14 0 -12 37 -12 45 0 7 12 -5 19 -27
14z"/>
<path d="M2253 880 c5 -43 -2 -50 -27 -24 -9 8 -21 12 -26 9 -7 -4 -2 -16 13
-31 l25 -25 36 22 c38 22 50 51 17 42 -10 -3 -22 0 -25 6 -4 6 0 11 8 11 9 0
16 7 16 15 0 9 -9 15 -21 15 -19 0 -21 -4 -16 -40z"/>
<path d="M1817 903 c-16 -15 -6 -34 15 -31 29 4 38 38 10 38 -10 0 -22 -3 -25
-7z"/>
<path d="M927 893 c-17 -16 -4 -30 28 -31 37 -1 43 6 23 26 -13 13 -41 16 -51
5z"/>
<path d="M1743 883 c-32 -6 -30 -33 2 -33 18 0 25 5 25 20 0 11 -1 19 -2 19
-2 -1 -13 -4 -25 -6z"/>
<path d="M1484 859 c-23 -26 -11 -49 27 -49 29 0 42 14 39 45 -1 21 -48 24
-66 4z"/>
<path d="M1610 854 c0 -22 33 -34 53 -19 27 19 20 31 -18 32 -23 1 -35 -4 -35
-13z"/>
<path d="M2144 846 c-11 -8 -15 -18 -10 -23 5 -4 11 -2 14 6 3 10 9 8 23 -10
10 -13 21 -20 26 -15 4 5 2 11 -4 13 -7 3 -13 13 -13 24 0 23 -9 24 -36 5z"/>
<path d="M1248 836 c-10 -7 -18 -18 -18 -25 0 -15 -27 -14 -33 2 -3 9 -7 9
-17 0 -21 -20 -4 -43 32 -43 28 0 36 5 48 33 7 17 15 35 18 40 6 11 -11 8 -30
-7z"/>
<path d="M1305 829 c5 -16 4 -19 -5 -14 -7 4 -16 2 -20 -6 -14 -22 1 -32 20
-14 10 9 24 14 30 10 12 -7 40 12 40 27 0 5 -9 6 -20 3 -11 -4 -20 -2 -20 4 0
6 -7 11 -16 11 -11 0 -14 -6 -9 -21z"/>
<path d="M2373 835 c-15 -11 -16 -16 -4 -38 16 -31 33 -26 48 12 9 25 8 30 -8
34 -10 3 -26 -1 -36 -8z"/>
<path d="M1880 822 c-8 -14 -11 -15 -19 -3 -9 14 -35 6 -26 -9 3 -5 -5 -10
-17 -12 -36 -5 -29 -34 7 -30 17 2 34 8 40 13 5 5 17 9 27 9 9 0 22 9 27 19 9
15 7 20 -9 24 -12 3 -24 -1 -30 -11z"/>
<path d="M780 801 c0 -29 14 -41 51 -41 10 0 19 5 19 10 0 6 -6 10 -14 10 -9
0 -12 8 -8 25 4 22 1 25 -22 25 -22 0 -26 -4 -26 -29z"/>
<path d="M720 795 c0 -18 5 -25 20 -25 23 0 24 4 10 31 -15 27 -30 24 -30 -6z"/>
<path d="M850 806 c0 -13 27 -31 43 -28 4 1 7 -2 7 -8 0 -15 36 -12 50 5 7 8
21 15 31 15 26 0 24 16 -3 24 -38 10 -78 7 -78 -6 0 -9 -3 -9 -12 0 -16 16
-38 15 -38 -2z"/>
<path d="M1052 793 c3 -22 9 -27 41 -30 21 -2 37 1 37 7 0 5 -6 10 -14 10 -8
0 -16 6 -19 14 -3 7 -15 16 -27 19 -18 5 -21 2 -18 -20z"/>
<path d="M1375 811 c-7 -12 12 -24 25 -16 11 7 4 25 -10 25 -5 0 -11 -4 -15
-9z"/>
<path d="M1740 770 c0 -33 11 -38 30 -15 10 12 10 18 0 30 -19 23 -30 18 -30
-15z"/>
<path d="M2051 793 c-16 -6 -51 -40 -51 -49 0 -3 11 -3 25 0 18 5 25 2 25 -9
0 -30 18 -14 28 25 10 41 6 46 -27 33z"/>
<path d="M2127 793 c-13 -12 -7 -23 13 -23 11 0 20 7 20 15 0 15 -21 21 -33 8z"/>
<path d="M2295 789 c-3 -4 -1 -11 5 -14 8 -5 7 -11 -1 -21 -6 -8 -9 -18 -5
-22 8 -7 56 42 56 57 0 11 -49 11 -55 0z"/>
<path d="M1672 778 c-6 -6 -8 -17 -5 -24 5 -15 -12 -20 -21 -6 -2 4 -19 9 -36
10 -26 2 -31 -1 -26 -14 4 -11 2 -15 -8 -11 -7 3 -19 0 -25 -6 -6 -6 -11 -7
-11 -2 0 4 -9 0 -20 -10 -28 -25 -27 -49 3 -41 12 4 27 8 32 10 6 1 25 10 43
20 18 9 41 14 51 11 12 -3 21 0 25 11 3 9 13 14 20 11 18 -7 40 18 31 33 -5 8
-12 7 -23 -2 -10 -8 -13 -9 -9 -1 10 16 -7 25 -21 11z"/>
<path d="M1472 768 c-19 -19 -14 -30 10 -26 13 2 24 11 26 21 4 20 -18 23 -36
5z"/>
<path d="M2220 764 c-14 -8 -24 -21 -22 -30 2 -9 -1 -13 -7 -9 -6 3 -11 2 -11
-4 0 -6 -10 -15 -21 -22 -17 -8 -23 -8 -29 1 -4 7 -13 9 -19 6 -8 -5 -7 -11 2
-21 14 -13 63 -10 73 6 3 5 14 9 25 9 16 0 19 6 17 28 -2 19 2 27 12 27 10 0
14 -8 12 -22 -2 -13 2 -23 7 -23 6 0 11 9 11 19 0 11 3 26 6 35 8 20 -20 20
-56 0z"/>
<path d="M1360 748 c-14 -6 -33 -10 -42 -9 -22 3 -23 -13 -2 -33 19 -20 28
-20 44 -1 7 8 21 15 30 15 29 0 50 11 50 26 0 17 -44 18 -80 2z"/>
<path d="M1910 731 c0 -17 -5 -19 -35 -14 -41 7 -85 -17 -85 -46 0 -17 3 -18
33 -8 17 7 35 16 39 21 4 6 12 5 20 -2 9 -7 18 -8 24 -3 5 5 29 13 53 18 25 4
47 15 49 22 3 10 0 12 -13 7 -11 -4 -22 -1 -26 6 -6 10 -12 8 -23 -7 -15 -20
-15 -20 -16 3 0 12 -4 22 -10 22 -5 0 -10 -9 -10 -19z"/>
<path d="M1256 723 c-4 -5 -15 -8 -24 -9 -10 -1 -27 -2 -39 -3 -34 -2 -32 -41
1 -41 14 0 28 5 31 10 3 6 22 10 41 10 32 0 33 1 22 20 -14 22 -20 24 -32 13z"/>
<path d="M2410 710 c0 -11 5 -20 10 -20 6 0 10 9 10 20 0 11 -4 20 -10 20 -5
0 -10 -9 -10 -20z"/>
<path d="M902 713 c-6 -2 -10 -9 -6 -14 3 -5 -1 -9 -10 -9 -8 0 -17 6 -19 13
-4 9 -8 8 -16 -3 -7 -10 -11 -11 -11 -2 0 6 -7 12 -16 12 -11 0 -14 -5 -10
-16 3 -9 6 -17 6 -19 0 -13 70 -24 93 -16 15 6 29 6 32 2 3 -5 13 -7 23 -4 14
3 17 12 14 34 -4 25 -8 29 -36 28 -17 0 -37 -3 -44 -6z"/>
<path d="M1007 713 c-13 -12 -7 -18 18 -19 15 -1 25 3 25 12 0 14 -31 19 -43
7z"/>
<path d="M1067 703 c-12 -11 -8 -23 8 -23 8 0 15 7 15 15 0 16 -12 20 -23 8z"/>
<path d="M1107 703 c-10 -9 13 -33 30 -33 10 0 13 6 9 16 -3 9 -6 18 -6 20 0
7 -26 5 -33 -3z"/>
<path d="M2323 690 c-27 -11 -30 -28 -7 -37 11 -4 22 1 30 12 25 34 18 41 -23
25z"/>
<path d="M1729 690 c-11 -62 -11 -62 13 -55 33 11 34 13 10 38 -12 12 -22 19
-23 17z"/>
<path d="M2033 668 c-4 -7 -16 -13 -25 -13 -10 0 -18 -4 -17 -10 0 -5 6 -9 14
-7 7 1 16 -2 20 -8 10 -15 25 -12 25 6 0 9 9 18 20 21 11 3 20 9 20 14 0 14
-48 11 -57 -3z"/>
<path d="M1663 659 c-6 -6 -31 -12 -56 -13 -48 -3 -77 -19 -77 -42 0 -17 32
-18 47 -3 6 6 33 12 60 13 52 1 76 16 67 40 -7 18 -25 21 -41 5z"/>
<path d="M1368 654 c-9 -8 -113 -25 -190 -31 -55 -4 -67 -8 -71 -24 -7 -25 39
-47 63 -30 30 22 60 30 92 26 17 -2 38 1 45 7 7 6 13 8 13 4 0 -4 11 1 24 9
19 13 25 13 29 3 5 -16 12 -10 21 20 5 15 3 22 -7 22 -7 0 -16 -3 -19 -6z"/>
<path d="M1460 645 c0 -8 5 -15 10 -15 6 0 10 7 10 15 0 8 -4 15 -10 15 -5 0
-10 -7 -10 -15z"/>
<path d="M2200 634 l-25 -14 28 0 c17 0 27 5 27 15 0 8 -1 15 -2 14 -2 -1 -14
-7 -28 -15z"/>
<path d="M1905 621 c-9 -16 18 -23 46 -12 16 6 18 10 7 10 -9 1 -23 4 -31 7
-8 3 -18 1 -22 -5z"/>
<path d="M1067 613 c-21 -5 -18 -27 4 -31 9 -2 15 5 15 18 0 11 0 19 -1 19 0
-1 -8 -3 -18 -6z"/>
<path d="M1820 600 c-25 -10 -59 -19 -75 -19 -17 -1 -36 -6 -42 -12 -13 -13
-176 -24 -201 -14 -28 12 -81 15 -87 4 -4 -5 -24 -9 -46 -9 -21 0 -39 -4 -39
-8 0 -5 -23 -8 -50 -9 -58 0 -68 -6 -50 -28 9 -11 21 -14 34 -10 12 4 43 6 69
5 27 0 55 4 63 11 18 15 129 12 153 -3 12 -7 35 -6 80 6 34 9 71 16 82 16 11
0 39 9 61 20 23 11 57 20 75 20 29 0 33 3 33 25 0 29 -2 30 -60 5z"/>
<path d="M2140 605 c0 -9 5 -15 11 -13 6 2 11 8 11 13 0 5 -5 11 -11 13 -6 2
-11 -4 -11 -13z"/>
<path d="M2377 600 c-3 -13 0 -20 9 -20 15 0 19 26 5 34 -5 3 -11 -3 -14 -14z"/>
<path d="M910 599 c0 -5 5 -9 11 -9 5 0 7 -5 3 -11 -4 -7 4 -10 22 -8 16 2 35
0 42 -5 13 -8 30 20 18 31 -10 10 -96 12 -96 2z"/>
<path d="M872 583 c4 -22 38 -30 38 -10 0 8 -7 18 -16 21 -23 9 -26 8 -22 -11z"/>
<path d="M823 565 c-8 -21 -2 -24 25 -14 13 5 20 13 17 19 -9 15 -35 12 -42
-5z"/>
<path d="M2050 571 c0 -5 -3 -16 -6 -25 -10 -26 10 -18 23 9 9 20 8 25 -3 25
-8 0 -14 -4 -14 -9z"/>
<path d="M2005 560 c-3 -5 3 -10 14 -10 12 0 21 5 21 10 0 6 -6 10 -14 10 -8
0 -18 -4 -21 -10z"/>
<path d="M2242 547 c-12 -14 -12 -57 -1 -57 10 0 26 23 32 48 6 25 -13 31 -31
9z"/>
<path d="M2296 552 c-3 -6 -1 -14 5 -17 15 -10 25 3 12 16 -7 7 -13 7 -17 1z"/>
<path d="M1916 525 c-9 -9 -26 -16 -39 -15 -12 1 -25 1 -29 0 -5 -1 -11 -3
-15 -5 -28 -7 -43 -19 -43 -34 0 -13 8 -17 33 -15 42 3 77 14 77 25 0 5 7 6
16 2 10 -4 17 1 21 16 4 17 11 20 35 16 21 -4 29 -2 26 7 -7 20 -63 22 -82 3z"/>
<path d="M2191 514 c-9 -11 -10 -19 -3 -26 14 -14 32 -1 32 23 0 23 -10 24
-29 3z"/>
<path d="M920 506 c0 -24 15 -26 28 -5 11 16 9 19 -8 19 -11 0 -20 -6 -20 -14z"/>
<path d="M1010 506 c0 -23 19 -29 35 -12 21 20 19 26 -10 26 -15 0 -25 -6 -25
-14z"/>
<path d="M1155 513 c-57 -8 -51 -23 9 -23 42 0 57 3 54 13 -5 14 -20 16 -63
10z"/>
<path d="M856 501 c-18 -7 -18 -8 -2 -14 29 -11 46 -8 46 8 0 16 -14 18 -44 6z"/>
<path d="M740 480 c0 -5 9 -10 20 -10 11 0 20 5 20 10 0 6 -9 10 -20 10 -11 0
-20 -4 -20 -10z"/>
<path d="M1731 481 c-7 -5 -10 -14 -7 -20 9 -14 1 -14 -23 0 -23 15 -71 4 -71
-16 0 -8 5 -15 12 -15 6 0 9 -2 6 -5 -10 -10 -39 8 -34 21 3 9 -2 14 -14 14
-23 0 -27 -29 -8 -48 18 -18 56 -14 70 8 9 13 19 18 35 14 40 -11 73 4 73 31
0 26 -14 31 -39 16z"/>
<path d="M2135 467 c-28 -21 -9 -40 21 -21 13 9 24 20 24 25 0 13 -24 11 -45
-4z"/>
<path d="M1410 450 c-12 -8 -12 -10 2 -15 19 -7 38 1 38 16 0 12 -21 11 -40
-1z"/>
<path d="M1460 440 c0 -11 5 -20 10 -20 6 0 10 9 10 20 0 11 -4 20 -10 20 -5
0 -10 -9 -10 -20z"/>
<path d="M1495 450 c-10 -16 2 -24 36 -26 23 -1 29 2 27 15 -4 19 -53 28 -63
11z"/>
<path d="M1964 438 c-3 -5 2 -19 12 -31 11 -12 20 -24 21 -26 1 -2 11 7 22 20
13 16 30 24 52 24 18 0 34 5 36 10 4 13 -135 16 -143 3z"/>
<path d="M948 433 c-35 -5 -46 -33 -14 -33 14 0 31 -3 40 -6 11 -4 16 0 16 12
0 14 3 15 8 6 8 -12 45 -12 58 1 8 8 -41 28 -64 26 -9 -1 -29 -4 -44 -6z"/>
<path d="M1080 432 c0 -29 95 -61 129 -43 29 16 27 41 -4 41 -19 0 -23 -4 -18
-17 5 -15 4 -16 -8 -7 -8 6 -25 14 -39 16 -14 3 -33 9 -42 13 -10 4 -18 3 -18
-3z"/>
<path d="M2230 430 c0 -5 7 -10 15 -10 8 0 15 5 15 10 0 6 -7 10 -15 10 -8 0
-15 -4 -15 -10z"/>
<path d="M805 420 c-3 -6 1 -13 10 -16 19 -8 30 0 20 15 -8 14 -22 14 -30 1z"/>
<path d="M1312 418 c6 -18 28 -21 28 -4 0 9 -7 16 -16 16 -9 0 -14 -5 -12 -12z"/>
<path d="M735 410 c3 -5 13 -10 21 -10 8 0 14 5 14 10 0 6 -9 10 -21 10 -11 0
-17 -4 -14 -10z"/>
<path d="M1910 406 c0 -8 -13 -23 -30 -33 -16 -9 -30 -23 -30 -30 0 -19 8 -16
41 11 20 17 37 23 56 20 22 -3 24 -2 13 6 -13 9 -13 11 0 21 13 9 12 10 -2 5
-10 -3 -20 -1 -23 4 -9 15 -25 12 -25 -4z"/>
<path d="M1785 384 c-22 -8 -53 -16 -70 -20 -37 -7 -55 -21 -48 -40 7 -19 23
-18 23 2 0 13 3 14 15 4 12 -10 21 -8 48 9 19 12 41 21 49 21 8 0 22 6 32 13
29 21 -2 28 -49 11z"/>
<path d="M1466 351 c-8 -12 1 -17 37 -19 19 -1 27 2 25 11 -6 15 -54 22 -62 8z"/>
<path d="M890 345 c0 -2 12 -16 26 -30 25 -25 27 -26 46 -8 19 17 20 17 33 0
14 -20 55 -23 73 -5 9 9 12 8 12 -5 0 -9 7 -17 15 -17 8 0 15 6 15 14 0 22 22
31 34 15 14 -18 96 -20 96 -2 0 17 -21 28 -29 14 -5 -8 -17 -8 -42 0 -18 5
-85 10 -146 9 -70 0 -113 4 -113 10 0 5 -4 10 -10 10 -5 0 -10 -2 -10 -5z"/>
<path d="M1338 330 c-10 -9 -18 -19 -18 -23 0 -11 62 -19 72 -9 6 6 16 8 23 5
14 -5 40 33 28 40 -19 11 -89 3 -105 -13z"/>
<path d="M1260 332 c0 -15 22 -30 36 -25 11 4 12 9 3 19 -12 15 -39 19 -39 6z"/>
<path d="M1576 315 c-3 -8 -14 -15 -25 -15 -13 0 -21 -8 -23 -22 -2 -17 -9
-22 -25 -20 -24 3 -31 -20 -14 -46 7 -11 9 -11 14 2 4 9 16 15 29 13 15 -1 23
4 26 18 2 11 10 27 18 36 8 9 11 19 7 22 -3 4 -1 7 5 7 7 0 12 5 12 10 0 15
-17 12 -24 -5z"/>
<path d="M1778 314 c-16 -8 -28 -21 -28 -29 0 -22 10 -18 42 15 31 33 27 37
-14 14z"/>
<path d="M732 309 c2 -7 10 -15 17 -17 8 -3 12 1 9 9 -2 7 -10 15 -17 17 -8 3
-12 -1 -9 -9z"/>
<path d="M1694 266 c-4 -9 -18 -16 -34 -16 -24 0 -28 -4 -34 -41 -8 -49 -5
-54 23 -39 17 8 19 15 11 29 -12 24 -3 32 28 24 16 -4 23 -2 18 5 -4 6 2 8 15
5 17 -5 20 -2 17 18 -4 28 -35 38 -44 15z"/>
<path d="M2010 269 c0 -5 -3 -8 -7 -6 -12 7 -53 -11 -53 -23 0 -17 46 -11 63
8 19 21 22 32 7 32 -5 0 -10 -5 -10 -11z"/>
<path d="M2165 270 c-3 -5 3 -10 14 -10 12 0 21 5 21 10 0 6 -6 10 -14 10 -8
0 -18 -4 -21 -10z"/>
<path d="M1280 245 c0 -20 4 -26 18 -23 9 2 17 12 17 23 0 11 -8 21 -17 23
-14 3 -18 -3 -18 -23z"/>
<path d="M2100 245 c0 -12 7 -15 25 -13 14 2 26 8 26 13 0 6 -12 11 -26 13
-18 2 -25 -1 -25 -13z"/>
<path d="M1180 234 c-14 -7 -35 -14 -47 -14 -14 0 -23 -6 -23 -15 0 -11 7 -14
24 -9 13 3 27 1 30 -5 13 -20 38 -13 31 9 -4 11 -2 20 4 20 6 0 11 -7 11 -15
0 -8 5 -15 10 -15 6 0 10 5 10 10 0 6 7 10 15 10 8 0 15 8 15 18 0 22 -44 26
-80 6z"/>
<path d="M948 233 c-22 -5 -22 -10 -3 -30 12 -12 19 -13 30 -3 8 7 15 19 15
26 0 14 -10 16 -42 7z"/>
<path d="M1016 231 c-3 -4 5 -18 18 -30 21 -20 24 -20 30 -5 9 24 -35 57 -48
35z"/>
<path d="M1900 227 c0 -9 -4 -17 -10 -17 -5 0 -10 -4 -10 -10 0 -16 30 -11 37
6 3 8 1 20 -6 27 -8 8 -11 7 -11 -6z"/>
<path d="M2050 231 c0 -17 12 -41 21 -41 5 0 9 11 9 25 0 16 -6 25 -15 25 -8
0 -15 -4 -15 -9z"/>
<path d="M772 221 c-11 -7 -11 -9 1 -14 19 -7 57 2 57 14 0 11 -41 11 -58 0z"/>
<path d="M877 210 c6 -24 19 -26 27 -4 9 23 8 24 -13 24 -14 0 -18 -5 -14 -20z"/>
<path d="M1415 220 c-3 -5 -13 -6 -23 -3 -15 6 -15 5 -3 -10 18 -23 41 -21 41
3 0 22 -5 26 -15 10z"/>
<path d="M1761 189 c-13 -11 -31 -24 -40 -29 -9 -5 -12 -12 -7 -17 5 -4 11 -2
13 5 3 6 11 12 19 12 20 0 75 36 67 43 -11 12 -27 7 -52 -14z"/>
<path d="M1831 178 c-11 -30 -9 -31 23 -17 20 9 23 15 15 26 -16 19 -28 16
-38 -9z"/>
<path d="M1305 160 c-3 -5 3 -10 14 -10 12 0 21 5 21 10 0 6 -6 10 -14 10 -8
0 -18 -4 -21 -10z"/>
<path d="M1525 160 c-7 -12 12 -40 27 -40 13 0 6 43 -9 47 -6 2 -14 -1 -18 -7z"/>
<path d="M1214 145 c-12 -9 -14 -14 -6 -15 7 0 20 7 28 15 20 19 4 20 -22 0z"/>
<path d="M1435 149 c-4 -6 -5 -13 -2 -16 7 -7 27 6 27 18 0 12 -17 12 -25 -2z"/>
</g>
</svg>
